<?xml version="1.0" standalone="no"?>
<!DOCTYPE svg PUBLIC "-//W3C//DTD SVG 20010904//EN"
 "http://www.w3.org/TR/2001/REC-SVG-20010904/DTD/svg10.dtd">
<svg version="1.0" xmlns="http://www.w3.org/2000/svg"
 width="848.000000pt" height="477.000000pt" viewBox="0 0 848.000000 477.000000"
 preserveAspectRatio="xMidYMid meet">

<g transform="translate(0.000000,477.000000) scale(0.100000,-0.100000)"
fill="#000000" stroke="none">
<path d="M240 4763 c1 -13 59 -73 70 -73 17 0 11 13 -20 48 -28 30 -50 41 -50
25z"/>
<path d="M2870 4760 c0 -5 6 -10 14 -10 8 0 17 -8 20 -17 5 -13 9 -14 19 -4 9
10 8 15 -7 27 -23 16 -46 18 -46 4z"/>
<path d="M3238 4726 c-2 -36 0 -46 14 -50 13 -3 18 -14 18 -36 0 -29 -3 -32
-25 -28 -13 3 -46 0 -72 -7 l-48 -12 -3 -140 -3 -139 43 0 c44 1 52 8 78 64 7
16 17 22 32 20 20 -3 23 1 20 25 -3 26 -1 27 18 17 11 -6 21 -8 21 -5 1 3 2 9
3 13 3 20 63 72 83 72 24 0 31 14 13 25 -5 3 -10 13 -10 21 0 10 12 14 40 14
30 0 40 4 40 16 0 13 -7 15 -42 10 -24 -4 -65 -9 -93 -12 l-50 -5 30 24 c24
20 29 32 28 63 -1 32 4 44 30 66 l32 27 -96 1 -97 0 -4 -44z"/>
<path d="M3580 4754 c0 -8 -20 -24 -46 -35 -39 -18 -45 -24 -42 -47 2 -19 10
-28 26 -30 18 -3 22 1 22 22 0 22 4 26 29 26 33 0 49 16 32 33 -17 17 -13 27
9 27 11 0 20 5 20 10 0 6 -11 10 -25 10 -16 0 -25 -6 -25 -16z"/>
<path d="M3737 4759 c8 -8 16 -8 30 0 16 9 14 10 -11 11 -22 0 -27 -3 -19 -11z"/>
<path d="M3814 4754 c3 -9 6 -20 6 -25 0 -14 22 -11 41 7 16 14 18 14 28 -5 6
-11 7 -22 3 -25 -12 -7 -140 12 -163 25 -11 5 -23 8 -28 5 -5 -3 -9 -164 -10
-357 -1 -193 -4 -361 -7 -373 -7 -31 30 -76 64 -76 20 0 23 3 14 12 -7 7 -12
16 -12 21 0 11 91 -2 108 -16 9 -7 16 -7 24 1 15 15 2 42 -20 42 -21 0 -48 25
-35 33 15 9 148 4 161 -6 9 -7 18 -6 29 6 22 21 2 47 -37 47 -26 0 -46 21 -33
34 10 10 51 7 59 -5 3 -6 17 -9 30 -6 14 2 27 0 30 -4 3 -5 12 -9 21 -9 13 0
13 3 3 15 -7 8 -20 15 -30 15 -27 0 -43 25 -26 39 11 10 21 9 46 -4 17 -9 36
-13 42 -9 6 4 17 -1 25 -12 11 -15 17 -16 31 -8 29 19 26 43 -5 49 -48 11 -53
14 -53 29 0 8 15 19 33 24 17 6 39 13 48 16 10 4 24 0 34 -10 14 -14 21 -15
36 -5 12 7 34 9 54 5 28 -5 36 -2 50 20 10 15 30 28 51 32 18 3 47 19 64 35
21 21 40 29 65 29 30 0 39 5 53 31 14 25 22 29 44 25 30 -6 93 16 105 38 13
22 108 76 134 76 13 0 32 7 42 15 28 21 67 77 61 87 -3 5 0 16 7 24 15 18 3
32 -13 16 -7 -7 -25 -12 -41 -12 -15 0 -37 -5 -48 -10 -21 -12 -22 -10 -33 43
-8 34 -13 33 -56 -2 -30 -25 -34 -34 -32 -71 3 -46 -10 -70 -39 -70 -13 0 -19
7 -19 23 0 41 -13 48 -48 25 -34 -21 -35 -23 -32 -80 1 -28 -3 -39 -19 -48
-28 -14 -41 -5 -42 28 0 15 -5 36 -10 47 -6 14 -8 7 -4 -26 5 -42 4 -47 -17
-53 -35 -9 -38 -8 -38 19 0 31 -22 33 -50 5 -16 -16 -18 -24 -9 -47 9 -24 7
-30 -11 -45 -30 -24 -39 -23 -50 7 -11 29 -18 31 -48 9 -18 -12 -22 -24 -20
-51 2 -28 -2 -38 -21 -51 l-24 -16 5 247 5 247 -73 0 c-76 0 -75 1 -78 -42 -1
-13 -46 -31 -55 -23 -2 3 -4 18 -3 35 l1 30 -136 0 c-119 0 -134 -2 -129 -16z
m-24 -104 c12 -8 11 -10 -5 -9 -11 1 -33 5 -50 9 l-30 8 35 1 c19 0 42 -4 50
-9z m383 -210 c15 0 27 -4 27 -10 0 -11 -42 -13 -77 -4 -13 4 -23 11 -23 16 0
6 10 8 23 4 12 -3 34 -6 50 -6z m-363 -40 c36 -35 40 -56 8 -39 -13 7 -25 15
-28 18 -3 4 -17 12 -32 18 -35 16 -36 33 -3 33 14 0 38 -13 55 -30z m235 -5
l50 -23 -40 -3 c-86 -5 -119 7 -95 36 16 20 25 19 85 -10z m200 -30 c0 -27
-40 -33 -54 -7 -13 24 -4 34 29 30 17 -2 25 -9 25 -23z m-291 -69 c17 -12 48
-29 68 -36 21 -8 40 -20 42 -27 8 -19 -7 -16 -70 14 -54 27 -56 27 -69 9 -9
-12 -20 -16 -32 -12 -17 7 -17 8 1 21 10 8 16 21 13 29 -5 13 0 26 11 26 3 0
19 -11 36 -24z m-134 -140 c0 -11 -19 -15 -25 -6 -3 5 1 10 9 10 9 0 16 -2 16
-4z m77 -60 c-5 -15 -59 -14 -64 1 -5 13 23 21 50 15 10 -3 16 -10 14 -16z"/>
<path d="M4355 4685 c0 -60 4 -88 13 -94 11 -6 10 -10 -4 -15 -16 -6 -16 -8 1
-26 10 -11 13 -20 8 -20 -13 0 -24 -62 -13 -74 8 -8 66 27 82 49 10 14 10 63
0 69 -5 3 -7 19 -4 36 2 17 0 30 -6 30 -6 0 -23 5 -39 11 l-28 11 30 25 c19
16 26 27 18 30 -19 7 -16 20 7 26 36 9 21 27 -23 27 l-43 0 1 -85z"/>
<path d="M4677 4708 c3 -35 7 -65 9 -66 3 -5 144 76 167 96 9 8 17 19 17 24 0
4 -45 8 -99 8 l-99 0 5 -62z"/>
<path d="M5044 4759 c-3 -6 -17 -8 -31 -4 -29 7 -93 -4 -93 -16 0 -11 70 -41
84 -36 5 2 26 -14 47 -35 34 -35 39 -37 63 -27 14 7 26 15 26 19 0 15 83 90
99 90 9 0 23 5 31 10 10 7 -23 10 -102 10 -73 0 -119 -4 -124 -11z"/>
<path d="M5415 4741 c-50 -29 -218 -122 -310 -172 -46 -25 -50 -30 -47 -61 1
-18 8 -46 15 -63 8 -21 12 -98 12 -250 0 -195 -2 -224 -18 -248 l-17 -27 39 0
c24 0 91 21 177 56 120 49 144 55 182 49 33 -5 42 -10 40 -23 -2 -9 -14 -19
-27 -22 -30 -7 -44 -52 -39 -122 2 -33 -1 -49 -10 -53 -8 -3 -102 -5 -209 -5
l-196 0 5 58 c3 31 1 82 -3 112 -5 30 -9 81 -9 112 1 44 -3 59 -17 67 -16 9
-16 10 -2 11 9 0 20 7 23 16 10 27 7 284 -4 305 -15 27 -27 24 -95 -22 -33
-23 -100 -61 -150 -86 -49 -25 -104 -56 -122 -69 -17 -13 -35 -24 -40 -24 -5
0 -40 -20 -80 -44 -39 -25 -94 -54 -122 -67 -75 -32 -82 -46 -64 -122 8 -34
15 -79 14 -99 0 -20 4 -40 9 -43 6 -4 45 10 87 30 91 43 119 43 115 0 -4 -32
-37 -75 -58 -75 -23 0 -54 -43 -52 -71 2 -22 5 -26 18 -19 9 5 16 18 17 31 4
43 67 56 75 15 4 -20 -1 -25 -33 -35 -85 -26 -132 -92 -132 -186 1 -33 -1 -47
-4 -30 -3 16 -10 34 -16 38 -9 6 -9 10 1 14 6 2 12 11 12 19 0 11 -4 12 -19 4
-11 -5 -24 -10 -30 -10 -15 0 -14 33 1 48 9 9 9 18 0 37 -9 20 -9 30 0 45 18
28 3 36 -28 15 -26 -17 -28 -17 -41 1 -17 24 -17 54 2 74 12 13 16 43 16 121
2 160 2 159 -57 114 -18 -14 -39 -25 -46 -25 -7 0 -30 -11 -51 -25 -20 -14
-57 -34 -81 -45 -25 -10 -52 -29 -60 -42 -9 -14 -35 -29 -63 -37 -26 -8 -67
-29 -90 -47 -23 -19 -51 -34 -63 -34 -12 0 -34 -9 -48 -20 -15 -12 -38 -29
-52 -39 -23 -18 -24 -22 -13 -53 6 -18 14 -76 18 -128 10 -154 11 -160 45
-160 16 0 32 -4 35 -10 4 -6 -8 -10 -28 -10 -26 0 -36 -5 -40 -20 -3 -14 -14
-20 -32 -20 -26 0 -26 1 -20 48 4 26 9 55 11 64 6 21 -24 38 -65 38 -50 0 -61
9 -61 51 0 30 3 37 15 33 11 -5 15 1 15 24 0 17 3 37 6 46 3 9 1 16 -4 16 -6
0 -14 -9 -17 -21 -5 -16 -10 -18 -21 -8 -16 13 -44 -4 -44 -27 0 -8 -9 -14
-21 -14 -11 0 -85 -36 -165 -80 -79 -44 -148 -80 -153 -80 -20 0 -40 -42 -31
-61 6 -10 10 -55 10 -101 0 -93 4 -104 40 -111 l25 -4 -27 -2 c-15 0 -30 -5
-33 -11 -3 -5 -12 -10 -18 -10 -9 0 -12 34 -11 125 1 69 -2 127 -6 130 -9 5
-131 -57 -272 -139 -20 -11 -65 -36 -100 -55 -35 -18 -65 -37 -68 -41 -3 -4
-22 -12 -42 -19 -20 -7 -55 -25 -77 -42 -23 -16 -43 -29 -46 -29 -3 0 -38 -20
-78 -43 -39 -24 -94 -54 -122 -67 -27 -13 -57 -29 -65 -36 -8 -7 -28 -16 -45
-20 -23 -5 -13 5 40 41 39 27 95 61 126 76 31 15 81 43 110 62 30 19 71 40 92
46 39 13 74 52 62 71 -10 16 -40 12 -60 -10 -20 -22 -51 -27 -57 -8 -8 23 -28
-4 -28 -37 0 -31 -3 -35 -39 -45 -22 -6 -41 -14 -43 -18 -5 -12 -77 -52 -93
-52 -8 0 -19 -9 -25 -20 -6 -11 -17 -20 -26 -20 -12 0 -14 16 -12 92 3 79 6
93 20 96 15 3 18 -4 18 -35 0 -46 9 -83 20 -83 13 0 17 32 8 64 -5 20 -3 35 7
50 8 11 15 35 15 53 0 68 72 140 132 131 20 -3 23 -9 26 -51 6 -85 22 -39 22
62 0 74 4 102 15 111 22 19 33 4 40 -55 5 -39 13 -59 26 -66 14 -7 19 -21 19
-54 0 -47 9 -56 31 -29 9 11 13 60 13 177 1 89 5 168 9 175 5 7 3 12 -6 12 -8
0 -48 -33 -90 -72 -41 -40 -121 -116 -177 -168 -56 -52 -109 -101 -116 -109
-13 -12 -14 -10 -8 13 5 22 3 26 -15 26 -11 0 -25 -9 -31 -19 -14 -28 -12 -41
5 -35 24 9 18 -23 -7 -40 -34 -24 -56 -21 -33 4 35 39 -7 21 -46 -20 -65 -67
-80 -52 -71 69 5 71 16 96 33 70 6 -10 9 -4 9 18 0 27 4 32 28 35 21 2 28 9
30 31 5 39 -19 35 -62 -13 -20 -22 -38 -40 -41 -40 -3 0 -5 39 -5 87 0 65 4
91 16 104 11 13 13 22 6 35 -8 15 -11 13 -17 -14 -3 -18 -12 -32 -20 -32 -17
0 -39 -55 -32 -81 6 -23 -12 -131 -23 -139 -14 -10 -16 -35 -3 -48 10 -11 9
-18 -10 -44 l-22 -30 -3 57 c-2 43 1 62 14 76 21 23 12 65 -17 72 -18 5 -20
10 -14 39 4 18 20 53 36 77 16 25 29 50 29 56 0 7 7 18 15 25 19 16 21 116 3
123 -16 5 -130 0 -176 -8 -29 -5 -32 -8 -21 -22 11 -12 9 -18 -10 -33 l-24
-17 39 -8 c33 -6 36 -9 19 -15 -11 -5 -50 -9 -86 -9 -53 -1 -68 -5 -73 -18 -4
-9 -2 -19 4 -23 6 -4 8 -14 5 -22 -5 -11 5 -21 32 -34 34 -17 38 -23 41 -61 4
-56 -12 -86 -44 -80 -14 2 -29 -2 -36 -11 -11 -13 -10 -14 8 -8 12 3 28 0 40
-9 17 -13 14 -14 -41 -16 -33 0 -80 -4 -105 -7 -45 -7 -45 -7 -46 -47 0 -22
-4 -48 -8 -57 -6 -14 -4 -18 10 -18 38 0 244 -70 244 -82 0 -5 -11 -8 -24 -8
-27 0 -56 -24 -56 -46 0 -8 -5 -14 -11 -14 -6 0 1 -14 15 -31 28 -33 31 -44
16 -54 -21 -13 -9 -25 30 -31 22 -4 40 -10 40 -14 0 -24 -37 -32 -159 -34 -91
-1 -133 -5 -145 -15 -9 -7 -17 -11 -17 -7 -1 3 -3 11 -4 16 -1 6 -3 15 -4 20
-1 13 -81 13 -81 1 0 -5 13 -12 30 -16 30 -7 62 -41 74 -82 6 -19 11 -20 29
-12 31 14 101 -2 105 -24 2 -12 -3 -17 -18 -17 -13 0 -20 -5 -17 -12 2 -7 18
-12 36 -12 19 1 31 -3 31 -11 0 -9 -19 -11 -76 -8 -70 4 -76 3 -81 -16 -5 -21
-6 -21 -30 5 -13 14 -21 29 -18 33 4 3 -22 10 -57 16 l-63 10 0 60 c0 55 2 60
23 63 31 5 28 30 -5 34 -17 2 -27 8 -25 17 3 17 -17 43 -29 36 -4 -3 -6 -37
-2 -76 9 -118 8 -139 -11 -139 -17 0 -56 51 -56 73 0 9 -4 18 -9 21 -10 7 -14
-77 -5 -106 3 -11 15 -18 30 -18 14 0 24 -6 24 -14 0 -7 7 -19 15 -26 10 -8
15 -31 15 -66 0 -51 -2 -54 -25 -54 -13 0 -28 -7 -33 -16 -8 -15 -10 -15 -15
-1 -3 9 -24 25 -46 36 -45 23 -66 47 -32 36 31 -10 29 32 -3 45 -13 4 -26 20
-30 34 -5 19 -13 26 -30 26 -13 0 -26 7 -30 15 -8 22 -26 18 -26 -5 0 -25 -26
-26 -39 -1 -8 14 -6 23 10 37 27 24 20 59 -23 122 -18 26 -31 55 -30 64 3 18
-52 53 -67 43 -11 -6 -41 38 -41 60 0 8 -5 15 -10 15 -24 0 -70 45 -70 68 0
37 -18 62 -45 62 -32 0 -33 24 -1 53 13 13 27 38 30 57 14 81 14 109 0 121 -8
6 -14 20 -14 30 0 10 -5 21 -10 24 -9 6 -11 -14 -15 -137 0 -20 -3 -39 -5 -41
-9 -8 -70 5 -70 15 0 5 4 6 10 3 15 -9 12 13 -6 40 -20 31 -42 32 -46 3 -3
-23 -3 -23 -21 -3 -10 11 -29 34 -43 52 -13 17 -40 37 -59 43 -26 9 -35 17
-35 34 0 37 -98 116 -145 116 -8 0 -15 6 -15 14 0 9 7 12 21 9 32 -9 39 12 39
118 0 52 4 99 10 105 6 6 6 22 1 44 -5 19 -9 79 -9 132 1 90 -4 120 -17 106
-8 -7 -25 -240 -25 -341 0 -95 -12 -111 -35 -45 -10 30 -10 39 2 51 15 14 8
30 -46 117 -10 17 -15 52 -16 110 0 62 -5 92 -17 110 -14 21 -17 50 -16 170 1
176 -15 290 -38 267 -8 -7 -5 -237 5 -442 7 -141 2 -185 -19 -185 -5 0 -25 17
-44 38 l-36 37 0 -836 c0 -588 3 -838 11 -846 8 -8 8 -13 0 -17 -16 -10 -15
-203 2 -209 9 -4 9 -6 0 -6 -10 -1 -13 -107 -13 -496 0 -465 1 -495 18 -495
16 -1 16 -1 0 -14 -10 -7 -18 -26 -18 -41 0 -27 1 -28 45 -22 38 6 45 4 45
-11 0 -13 -2 -14 -9 -4 -6 10 -16 8 -44 -10 -30 -19 -36 -29 -37 -57 l0 -34
25 23 c32 30 32 11 0 -40 l-25 -40 0 -460 0 -460 84 0 83 0 18 47 c9 27 34 75
55 108 21 33 49 81 61 108 14 29 33 52 50 59 21 9 25 16 17 25 -7 9 -7 17 2
28 7 9 15 13 18 11 10 -11 62 36 62 55 0 31 19 59 39 59 26 0 44 25 36 50 -4
11 -22 27 -41 35 -34 14 -34 14 -34 82 -1 37 -4 86 -9 109 -4 24 -4 50 3 65
l10 24 4 -27 c5 -37 21 -36 29 2 8 44 43 42 43 -2 l0 -32 29 34 c16 19 32 46
36 60 12 47 78 152 101 162 22 10 24 18 24 76 0 49 5 70 20 89 11 14 20 33 20
43 0 10 8 28 19 41 10 13 20 33 22 44 3 11 19 29 36 40 29 18 32 25 33 71 0
46 5 58 46 110 29 39 43 65 40 78 -3 10 3 35 13 55 15 31 16 40 5 61 -19 35
-17 48 7 61 20 10 21 9 17 -30 -2 -23 0 -41 4 -41 5 0 8 9 8 21 0 11 12 36 26
54 18 24 24 41 19 55 -4 12 -1 27 5 35 17 21 58 -1 65 -36 9 -41 31 -56 54
-35 16 15 19 15 31 1 29 -35 60 -14 74 51 l7 31 -82 7 c-111 9 -132 29 -89 83
27 35 27 105 -1 145 -16 22 -20 38 -16 65 8 46 15 52 33 29 12 -17 18 -18 50
-8 24 7 43 8 55 2 10 -6 27 -10 38 -10 12 0 21 -4 21 -9 0 -11 -25 -21 -56
-21 -24 0 -32 -14 -14 -25 6 -4 4 -15 -6 -30 -22 -34 -5 -61 43 -67 21 -3 41
-3 46 -1 4 2 7 23 7 46 0 24 7 52 15 64 8 12 12 28 9 37 -4 12 0 16 15 16 19
0 21 -6 21 -54 0 -44 3 -56 19 -61 25 -8 51 4 51 24 1 9 7 1 15 -17 13 -30 18
-33 43 -28 17 4 35 1 47 -8 11 -9 31 -16 45 -16 14 0 35 -7 47 -15 12 -9 39
-17 60 -20 21 -2 60 -7 86 -11 32 -4 56 -2 72 6 21 11 32 9 82 -11 32 -13 64
-24 71 -25 8 -2 20 -5 29 -8 25 -10 -4 -37 -33 -30 -15 4 -32 -1 -50 -15 -20
-15 -41 -21 -80 -21 -62 0 -77 -13 -32 -29 26 -9 34 -9 40 4 13 21 44 19 67
-6 11 -12 24 -18 30 -14 7 4 11 -5 11 -22 0 -21 5 -29 19 -30 14 -1 17 3 14
18 -7 27 40 26 68 -2 12 -12 35 -25 52 -30 27 -8 34 -6 48 13 30 39 33 118 5
118 -6 0 -19 18 -29 40 -22 46 -33 50 -49 15 -6 -14 -18 -25 -26 -25 -12 0
-12 4 3 20 18 20 18 21 -2 41 -11 11 -39 23 -61 26 -23 3 -40 9 -37 12 10 18
-53 57 -115 71 -14 3 -25 12 -25 20 0 21 49 16 84 -9 16 -12 40 -21 54 -21 13
0 30 -7 37 -15 7 -8 28 -17 49 -20 45 -8 108 -34 122 -52 34 -40 154 -58 154
-23 0 11 -14 16 -50 20 l-50 5 1 65 c0 36 3 102 5 147 2 44 1 84 -2 87 -3 4
-33 8 -65 10 -110 7 -329 28 -333 32 -19 17 79 22 184 9 28 -3 87 -8 132 -11
l83 -4 1 63 c1 34 4 76 8 92 6 28 9 30 51 30 l45 0 3 -68 c3 -64 2 -68 -23
-77 -29 -11 -33 -38 -8 -46 10 -3 25 -9 33 -13 8 -5 30 -6 49 -3 26 3 35 11
43 34 l11 30 13 -31 c18 -42 40 -49 68 -22 18 17 26 19 31 10 5 -7 1 -17 -9
-25 -11 -8 -13 -14 -7 -19 6 -3 14 0 17 9 8 20 44 16 44 -5 0 -18 -33 -35 -48
-25 -5 3 -54 7 -110 10 -93 5 -102 4 -102 -12 0 -10 5 -23 12 -30 8 -8 8 -15
0 -25 -7 -8 -9 -27 -6 -46 4 -18 10 -28 13 -23 4 7 19 7 44 -1 39 -13 49 -27
19 -27 -27 0 -43 -20 -32 -40 6 -12 5 -23 -5 -36 -8 -11 -10 -23 -4 -30 14
-17 -1 -84 -20 -84 -13 -1 -12 -3 4 -16 42 -31 60 -28 109 20 52 52 61 56 53
23 -4 -12 -2 -29 4 -37 18 -28 41 18 37 75 -2 39 0 50 12 50 12 0 14 -12 12
-60 -3 -67 25 -162 52 -177 9 -5 29 -8 44 -6 l27 3 3 115 c2 63 6 135 8 160 6
63 5 211 -3 223 -3 5 -5 116 -4 246 1 226 2 237 22 254 12 9 25 17 30 17 16 0
8 -467 -9 -530 -12 -45 -13 -71 -4 -145 6 -49 14 -157 17 -240 4 -82 9 -153
11 -157 3 -4 24 -8 48 -8 32 0 48 6 65 24 l22 24 -16 97 c-12 71 -16 142 -13
268 1 95 1 222 0 282 -2 61 -2 119 0 130 5 33 -27 29 -43 -6 -14 -30 -16 -31
-32 -15 -13 13 -17 35 -17 88 0 112 47 184 51 78 l2 -35 6 35 c6 36 26 51 109
81 26 9 32 17 31 38 0 14 4 55 11 90 6 35 8 76 5 90 -3 14 -1 32 4 40 15 24
47 -34 33 -62 -11 -22 -33 -774 -24 -810 3 -14 7 -15 18 -6 10 8 14 40 14 123
0 81 4 118 14 132 8 10 18 15 23 11 4 -5 8 -90 8 -190 0 -162 -2 -182 -17
-185 -12 -2 -17 5 -20 25 -2 20 -9 28 -23 28 -19 0 -19 -8 -20 -237 -1 -131 2
-243 6 -250 7 -10 13 -10 27 -2 14 9 22 8 37 -2 25 -19 60 -18 76 2 7 9 24 20
37 25 21 8 23 14 18 40 -3 18 -6 49 -6 70 0 32 -5 41 -30 56 -25 14 -30 24
-30 56 0 21 5 48 11 59 8 15 8 26 -1 44 -9 16 -11 51 -6 121 8 127 8 243 0
369 l-7 100 40 12 c22 7 50 12 62 12 43 0 101 24 101 42 0 10 -3 18 -7 18 -5
0 -54 -7 -111 -14 -56 -8 -111 -12 -123 -9 -11 3 -19 2 -18 -3 10 -55 -22 -90
-35 -38 -10 37 -5 203 5 210 5 3 9 14 9 25 0 40 25 12 28 -32 4 -54 22 -78 22
-28 0 19 7 44 15 57 16 22 81 46 166 60 43 7 44 9 53 52 4 25 10 84 13 133 5
97 4 99 -60 72 -20 -8 -47 -15 -59 -15 -18 1 -16 4 12 14 72 27 86 34 99 50
19 23 27 20 45 -18 13 -28 14 -38 3 -59 -9 -17 -11 -49 -7 -108 4 -46 5 -124
4 -174 -18 -654 -23 -1343 -10 -1359 6 -8 34 -17 62 -20 87 -11 79 -66 84 574
2 318 -7 633 -21 684 -13 46 -5 187 12 219 6 11 13 70 15 131 2 61 5 122 6
136 2 20 -1 25 -19 24 -30 -1 -29 7 4 30 25 18 26 18 57 1 17 -11 36 -25 42
-33 7 -10 23 -13 47 -10 20 2 37 1 37 -4 0 -14 -35 -26 -60 -21 -14 2 -35 0
-48 -4 -23 -9 -23 -9 -28 -273 -15 -805 -18 -1509 -8 -1520 3 -3 33 -5 68 -6
l62 -1 16 41 c23 60 30 107 17 123 -9 10 -8 18 5 31 14 16 16 48 16 229 0 157
-4 222 -15 259 -18 58 -20 135 -4 151 21 21 29 161 9 173 -9 5 -9 9 -1 14 16
10 14 37 -5 57 -13 15 -16 39 -15 124 1 76 -3 115 -15 143 -13 31 -15 62 -9
199 5 102 11 166 19 171 6 5 34 12 63 16 l51 6 -10 -28 c-21 -55 14 -111 48
-77 9 8 17 15 19 15 2 0 13 -30 26 -67 12 -38 32 -88 44 -113 12 -25 26 -60
30 -78 l7 -33 -49 3 -48 3 0 80 c0 44 -4 86 -8 93 -5 6 -21 12 -36 12 -16 0
-33 -6 -39 -12 -5 -7 -10 -50 -11 -95 0 -81 0 -83 24 -83 13 0 27 -6 32 -12 9
-16 14 -422 6 -495 l-6 -52 -41 -3 c-39 -3 -41 -5 -47 -43 -4 -22 -3 -48 2
-57 11 -21 49 -24 67 -6 8 8 15 9 22 2 5 -5 10 -154 10 -374 1 -201 4 -377 7
-393 6 -32 28 -35 43 -7 13 25 41 20 119 -21 30 -16 62 -29 72 -29 13 0 21
-12 29 -40 10 -39 26 -58 37 -46 8 8 5 74 -4 89 -4 6 -9 44 -11 84 -3 59 -1
74 12 79 13 5 15 22 12 109 -4 108 1 123 39 109 19 -8 19 3 -1 23 -13 14 -15
44 -13 202 2 102 0 195 -4 207 -4 12 -1 28 8 40 13 18 14 17 15 -17 0 -20 7
-58 17 -85 12 -37 17 -92 19 -223 l2 -175 73 -2 c41 -2 107 -8 147 -15 63 -11
72 -16 72 -35 0 -18 -7 -22 -55 -28 -32 -3 -64 -2 -75 4 -10 5 -31 10 -47 10
-15 0 -50 7 -77 15 -27 8 -52 15 -56 15 -13 0 -20 -97 -21 -285 -1 -99 -1
-187 0 -196 1 -8 14 -25 30 -36 l28 -21 -4 116 c-5 117 -5 117 24 149 29 33
58 44 207 73 58 12 58 12 53 43 -11 78 64 171 122 151 18 -7 30 -22 39 -48 17
-52 22 -105 11 -111 -5 -4 -9 -14 -9 -23 0 -12 3 -13 12 -4 17 17 25 15 31 -8
8 -30 -18 -46 -51 -31 -27 13 -27 13 -8 -8 11 -12 28 -21 38 -21 10 0 21 -6
24 -14 5 -13 40 -30 57 -27 4 1 10 -12 13 -29 4 -16 10 -27 15 -24 5 3 9 -1 9
-9 0 -7 11 -24 25 -37 28 -27 33 -50 9 -50 -8 0 -13 -4 -9 -10 3 -5 12 -7 21
-3 8 3 14 2 13 -3 -4 -17 13 -44 28 -44 8 0 12 -4 9 -9 -7 -11 69 -96 86 -96
7 0 12 -8 10 -17 -1 -9 3 -20 9 -24 8 -4 9 -3 5 4 -5 8 -2 10 9 6 9 -4 14 -9
11 -12 -3 -2 15 -27 39 -54 25 -28 42 -55 38 -61 -3 -5 -1 -7 4 -4 6 4 13 -12
17 -41 3 -26 8 -61 12 -78 5 -28 2 -33 -27 -48 -21 -11 -35 -13 -37 -6 -6 18
-24 11 -19 -9 2 -10 -3 -28 -13 -40 -15 -22 -18 -22 -33 -6 -9 9 -17 12 -17 6
0 -5 5 -13 10 -16 6 -3 10 -15 10 -25 0 -10 4 -20 10 -22 11 -3 22 -85 22
-165 0 -32 -7 -61 -18 -78 -14 -21 -15 -28 -4 -35 7 -5 10 -15 6 -25 -11 -30
24 -91 65 -115 31 -17 38 -18 33 -6 -8 20 1 20 37 -1 l29 -18 -37 -12 c-34
-11 -35 -12 -8 -9 17 2 24 1 16 -2 -9 -2 -10 -6 -3 -11 6 -3 -24 -5 -66 -4
-74 2 -75 1 -22 -6 71 -11 175 -39 224 -63 22 -10 56 -18 77 -18 34 0 37 2 43
37 3 21 6 56 6 79 l0 41 313 61 c412 80 385 76 383 56 -1 -18 133 -92 208
-114 23 -7 108 -45 189 -86 l148 -74 183 0 182 0 -8 63 c-4 34 -10 91 -13 126
-3 36 -6 65 -8 67 -1 1 -17 5 -35 9 -30 6 -33 5 -28 -11 3 -11 -3 -30 -13 -43
-18 -23 -19 -23 -29 -5 -12 23 -20 140 -9 150 4 4 17 2 30 -3 30 -15 118 -35
125 -29 3 3 -15 15 -39 25 l-45 20 -2 75 c-3 65 0 76 16 85 32 17 35 40 7 53
-25 11 -25 12 -25 143 l0 131 -60 29 c-33 16 -79 30 -103 31 -56 2 -51 0 -87
30 -17 15 -32 25 -34 23 -2 -2 3 -46 11 -97 8 -52 12 -96 9 -99 -7 -8 -779
-124 -784 -118 -2 2 -37 264 -77 582 -41 318 -83 655 -95 748 -12 94 -24 177
-26 185 -8 25 -24 -10 -22 -50 l1 -35 7 35 c6 27 7 23 4 -18 -4 -50 25 -311
101 -922 57 -452 66 -533 62 -537 -5 -4 -45 -11 -317 -54 -107 -16 -203 -32
-212 -35 -10 -3 -18 -1 -18 3 0 5 120 28 267 52 147 23 268 43 269 44 1 1 -42
355 -97 787 -54 432 -109 866 -122 965 -21 173 -22 177 -27 110 l-5 -70 -8 64
c-4 41 -3 69 3 75 5 5 10 26 9 45 l-1 36 -9 -39 c-5 -22 -14 -45 -20 -52 -6
-7 -8 -28 -5 -46 l6 -33 -13 34 c-10 25 -15 30 -19 19 -5 -12 -19 -15 -60 -12
l-53 2 -9 44 c-7 34 -10 39 -16 23 -4 -10 -6 -30 -4 -43 2 -22 -1 -23 -39 -21
-23 1 -55 1 -72 0 -27 -1 -28 -3 -12 -15 20 -16 22 -26 4 -26 -8 0 -19 10 -25
23 -8 16 -11 18 -11 5 -1 -29 -30 -49 -52 -38 -11 6 -25 8 -31 4 -8 -5 -5 -10
8 -15 17 -7 18 -8 1 -8 -24 -1 -52 25 -34 32 6 2 24 3 40 1 15 -1 27 2 27 8 0
5 6 8 13 5 8 -3 12 8 13 37 l1 42 -63 1 c-56 2 -64 -1 -78 -23 -12 -18 -13
-24 -4 -24 7 0 4 -6 -7 -12 -11 -6 -24 -17 -28 -25 -4 -7 -16 -13 -25 -13 -15
0 -15 2 -2 10 14 9 13 11 -9 14 -5 0 -13 4 -17 9 -4 4 -24 7 -45 7 -41 0 -57
13 -40 33 6 8 6 18 1 27 -8 13 -10 12 -10 -2 0 -10 -5 -18 -11 -18 -6 0 -8 10
-5 23 3 12 3 17 0 10 -3 -7 -11 -10 -19 -7 -7 3 -16 0 -21 -7 -5 -9 -2 -10 9
-6 10 3 17 3 17 -2 0 -5 -12 -11 -26 -14 -18 -3 -24 -1 -20 9 6 14 -6 19 -17
7 -14 -14 15 -30 47 -27 30 4 35 1 41 -23 16 -63 16 -73 0 -67 -8 4 -15 1 -15
-4 0 -6 8 -12 18 -15 9 -2 -6 -4 -34 -4 -45 -1 -51 2 -47 18 3 10 12 20 22 22
9 2 -4 4 -29 3 -36 -1 -45 2 -44 16 1 13 -8 16 -52 15 l-54 -2 0 43 c0 23 4
42 10 42 5 0 6 8 3 17 -6 15 -7 15 -14 -3 -6 -14 -8 -9 -9 21 -2 39 -16 109
-19 92 -1 -8 33 -287 143 -1197 21 -172 23 -200 12 -189 -4 4 -106 803 -106
829 0 6 -4 8 -10 5 -5 -3 -10 -17 -10 -30 0 -13 -4 -27 -10 -30 -9 -6 -7 -74
5 -205 3 -30 3 -50 0 -45 -9 20 -206 1597 -200 1604 2 2 186 10 407 17 547 18
1331 43 1453 46 l99 3 38 -325 c66 -568 98 -853 105 -914 l6 -58 -26 17 c-35
23 -50 15 -26 -14 10 -13 19 -18 19 -13 0 14 60 -6 112 -37 43 -26 50 -19 38
35 -19 82 -21 81 72 72 45 -4 108 -15 141 -23 98 -25 104 -23 103 34 -1 32 -5
46 -10 40 -13 -12 -60 -12 -89 2 -19 9 -31 7 -57 -6 -36 -19 -35 -19 -65 29
-14 22 -86 10 -93 -16 -7 -28 -22 -21 -22 10 0 25 3 28 33 28 79 0 284 18 299
26 15 7 16 13 6 33 -6 14 -14 25 -17 25 -90 7 -182 6 -187 -1 -7 -12 -44 -12
-44 0 0 5 -7 17 -16 25 -20 21 -54 4 -55 -27 0 -21 -1 -21 -9 -2 -7 17 -9 16
-9 -9 -1 -39 -7 -31 -15 22 -6 40 -5 42 18 42 14 0 55 7 93 16 37 9 103 16
145 16 63 1 80 4 94 20 25 27 10 35 -81 41 -69 4 -84 2 -104 -14 -31 -25 -56
-24 -58 2 -3 32 -19 45 -37 30 -12 -10 -13 -18 -5 -32 11 -21 7 -24 -43 -32
-31 -5 -33 -1 -44 76 l-6 47 118 2 c66 1 147 0 180 -1 60 -3 62 -2 78 29 18
37 14 50 -13 43 -10 -2 -25 3 -34 11 -21 22 -30 20 -57 -9 -30 -32 -54 -32
-69 1 -8 19 -16 24 -29 19 -9 -4 -30 -8 -47 -9 -22 -1 -30 -6 -29 -19 2 -16
-13 -24 -57 -30 -8 -2 -19 -6 -25 -10 -15 -9 -24 14 -24 57 l0 33 158 8 c86 5
176 9 198 9 l41 1 -2 230 c-1 126 2 238 6 247 6 11 5 20 -5 25 -8 4 -16 22
-18 38 -3 27 -7 30 -42 32 -22 1 -80 -7 -130 -19 -50 -11 -125 -26 -166 -33
-41 -7 -81 -15 -89 -16 -18 -5 -29 30 -30 93 -1 37 2 46 13 42 8 -3 17 0 22 7
4 8 3 10 -4 5 -7 -4 -12 -1 -12 6 0 9 24 20 63 30 34 9 72 19 84 23 18 6 25 2
32 -16 8 -19 5 -28 -11 -41 l-20 -18 20 0 c12 0 24 -4 27 -10 10 -16 97 -11
135 8 45 22 59 71 36 120 l-17 34 41 -7 c32 -5 41 -3 46 9 3 9 13 16 21 16 12
0 14 -7 9 -27 -17 -77 -14 -118 10 -148 22 -28 24 -29 24 -8 0 15 11 27 34 38
33 16 48 44 44 85 -2 30 2 50 12 50 6 0 10 -19 10 -42 0 -59 9 -68 66 -70 50
-1 270 34 280 45 4 3 9 21 13 39 l7 33 144 21 c80 12 167 27 195 32 27 6 53 8
58 5 16 -9 -5 -23 -37 -23 -17 0 -36 -4 -42 -9 -5 -5 -22 -12 -39 -14 -16 -3
0 -3 36 -1 50 3 70 0 79 -11 16 -19 40 -19 40 0 0 24 44 45 100 48 51 2 53 1
61 -27 5 -18 4 -35 -2 -42 -8 -10 -85 -24 -159 -30 -38 -2 -211 -32 -340 -59
-63 -13 -167 -31 -230 -41 -63 -9 -149 -25 -190 -34 l-75 -17 3 -46 c3 -45 2
-46 -25 -44 -19 1 -28 -3 -28 -13 0 -15 7 -16 36 -5 25 10 42 -41 47 -140 5
-111 4 -49 3 -528 -1 -224 2 -413 6 -420 4 -6 9 -27 13 -47 5 -34 7 -35 65
-44 67 -10 123 -11 332 -5 125 4 144 2 160 -13 9 -10 14 -20 10 -24 -8 -9
-519 14 -612 27 -44 6 -73 15 -78 25 -7 12 -12 13 -23 3 -26 -22 -223 -18
-321 6 -19 4 -23 1 -23 -16 0 -15 4 -19 16 -15 14 5 15 4 4 -9 -11 -13 -9 -15
13 -15 14 0 30 -7 34 -15 8 -13 11 -13 28 1 20 15 20 15 -2 11 -14 -3 -21 0
-20 7 1 6 -4 10 -10 8 -7 -1 -13 3 -13 9 0 6 3 9 8 7 4 -3 22 -10 40 -17 33
-13 43 -31 17 -31 -8 0 -15 -5 -15 -10 0 -6 11 -8 26 -4 21 5 25 4 19 -6 -5
-9 -4 -11 3 -6 7 4 28 3 47 -3 21 -5 33 -6 30 0 -8 12 6 11 25 -1 12 -8 12
-10 1 -10 -8 0 -12 -2 -9 -5 11 -11 38 8 38 26 0 11 13 25 32 35 30 15 32 15
45 -2 26 -35 17 -53 -29 -56 l-43 -3 50 -18 c28 -10 63 -24 79 -33 51 -26 193
-44 311 -40 107 5 178 -4 190 -24 4 -6 -3 -7 -18 -1 -18 7 -24 6 -24 -5 0 -8
4 -14 9 -14 5 0 7 -4 4 -8 -6 -11 -106 2 -133 17 -19 10 -20 8 -12 -35 5 -26
7 -49 4 -53 -2 -4 6 -23 18 -41 35 -54 65 -103 79 -130 7 -14 21 -33 30 -42
10 -10 24 -33 32 -53 11 -25 19 -33 30 -29 9 3 16 1 16 -5 0 -6 6 -10 13 -8 7
1 11 -7 10 -20 -2 -17 1 -21 14 -16 10 4 14 2 10 -4 -4 -6 0 -14 9 -17 22 -9
24 -8 24 9 0 18 5 18 31 4 12 -6 18 -17 15 -25 -3 -8 -1 -14 4 -14 5 0 7 -7 3
-16 -4 -12 1 -14 23 -12 20 2 29 -2 32 -14 5 -27 68 -84 117 -108 44 -21 72
-53 67 -77 -1 -6 16 -22 38 -34 22 -13 40 -26 40 -31 0 -4 9 -8 20 -8 11 0 18
-5 15 -12 -7 -19 19 -47 46 -50 33 -4 59 -28 59 -55 0 -23 14 -31 24 -14 13
20 97 -14 89 -35 -3 -8 0 -14 6 -14 7 0 11 35 11 104 l0 103 -91 89 c-50 49
-95 88 -101 86 -5 -1 -7 2 -4 7 3 5 -37 51 -89 103 -52 51 -95 92 -95 89 0 -3
-15 10 -34 28 -22 21 -32 39 -28 49 4 11 1 14 -10 9 -10 -3 -23 3 -35 16 l-18
22 23 -19 c12 -11 22 -15 22 -9 0 6 -18 25 -41 44 -68 57 -70 59 -62 83 13 38
10 328 -4 333 -7 3 -11 9 -8 13 3 5 26 2 53 -6 26 -7 64 -16 86 -19 26 -4 40
-12 43 -26 7 -24 14 -24 34 -1 13 15 26 17 100 11 46 -4 101 -8 121 -8 l37 -1
-1 -170 -2 -170 -42 0 c-31 0 -49 6 -63 21 -24 26 -106 36 -114 15 -4 -10 -23
-12 -74 -9 -57 5 -72 2 -87 -12 -15 -15 -19 -16 -34 -3 -26 23 -42 30 -42 19
0 -5 17 -22 38 -38 21 -15 79 -73 129 -128 113 -125 377 -395 386 -395 4 0 7
803 7 1785 l0 1785 -92 0 -92 0 -58 -57 c-65 -65 -80 -63 -69 10 l8 47 -143 0
c-121 0 -149 -3 -190 -20 -50 -22 -74 -20 -74 5 0 13 -35 15 -275 15 l-275 0
-2 -82 c-2 -126 -1 -148 4 -153 10 -11 137 60 136 75 -1 8 0 26 2 40 2 19 4
16 10 -15 4 -22 4 -45 -1 -51 -6 -7 -6 -57 -1 -125 5 -63 6 -123 2 -134 -4
-11 -4 -28 -1 -38 3 -9 5 -42 5 -72 -2 -53 10 -73 23 -39 5 13 7 13 14 2 22
-34 10 -55 -42 -71 -58 -19 -99 -22 -99 -7 0 6 8 13 18 16 45 15 72 27 68 31
-6 7 -116 -19 -122 -28 -7 -12 -7 -109 0 -116 3 -4 16 -2 29 4 12 6 42 18 67
28 25 9 53 21 63 27 27 14 47 -8 47 -52 0 -45 -21 -65 -77 -74 -23 -3 -50 -9
-60 -12 -10 -3 -3 3 15 15 35 22 37 28 22 51 -16 23 -112 -84 -104 -116 4 -14
-2 -41 -15 -66 -11 -24 -18 -52 -15 -64 6 -24 -10 -39 -48 -46 -34 -6 -36 7
-6 39 21 22 21 23 3 43 -14 16 -16 23 -7 32 15 15 16 55 2 63 -8 5 -8 11 -1
19 20 24 38 427 33 744 l-2 132 -857 0 -858 0 -50 -29z m2687 -25 c3 -14 2
-29 -1 -34 -3 -5 -39 -17 -79 -27 l-73 -19 3 -50 3 -49 -69 -23 c-79 -27 -105
-30 -111 -11 -3 6 -1 48 3 91 l7 79 65 18 c36 10 81 19 100 19 19 1 55 7 80
14 64 19 67 19 72 -8z m-1342 -36 c0 -5 -4 -10 -9 -10 -6 0 -13 5 -16 10 -3 6
1 10 9 10 9 0 16 -4 16 -10z m840 -7 c0 -9 -78 -43 -98 -43 -29 0 -8 20 36 33
58 18 62 19 62 10z m510 -53 c0 -20 -8 -34 -27 -47 -14 -10 -41 -32 -59 -49
-41 -38 -65 -49 -75 -33 -9 14 -1 39 12 39 5 0 38 27 72 60 34 33 65 60 70 60
4 0 7 -13 7 -30z m-1556 -1 c22 -17 43 -22 107 -23 43 -1 82 -5 85 -9 11 -11
-84 -8 -168 5 -65 9 -78 15 -78 30 0 24 21 23 54 -3z m1840 -71 c19 -31 -4
-53 -58 -54 -32 -1 -51 -8 -64 -22 -22 -25 -83 -46 -92 -32 -4 6 -5 24 -2 39
4 31 5 31 117 69 70 24 84 23 99 0z m-444 -103 c0 -15 52 -15 118 0 l32 8 0
-42 0 -41 -46 0 c-68 0 -84 -12 -84 -64 0 -36 5 -47 28 -62 15 -11 45 -21 67
-24 38 -5 40 -7 40 -39 0 -20 -6 -37 -15 -41 -33 -16 -91 -33 -210 -62 -165
-40 -194 -47 -265 -68 -33 -10 -79 -21 -101 -24 -41 -6 -41 -6 -47 31 -10 62
36 92 210 138 51 13 98 27 103 30 20 12 124 36 137 31 8 -3 13 2 13 14 0 24
-15 25 -63 5 -20 -8 -47 -15 -60 -15 -32 0 -57 29 -47 55 5 11 9 43 9 71 1 28
7 56 14 62 17 14 150 60 160 55 4 -2 7 -10 7 -18z m400 -38 c44 -15 41 -28
-11 -46 -31 -10 -43 -11 -49 -2 -4 7 -29 15 -56 19 -35 5 -50 12 -52 25 -3 15
5 17 65 16 37 0 84 -5 103 -12z m-670 -56 c0 -5 -7 -11 -15 -15 -21 -8 -19
-45 3 -52 9 -3 31 -11 47 -19 l30 -13 -27 -10 c-15 -6 -32 -21 -38 -32 -9 -17
-17 -20 -41 -15 -20 5 -45 -1 -86 -19 -62 -29 -79 -23 -68 24 4 14 7 39 8 55
2 24 7 31 27 33 14 2 31 9 39 15 7 6 28 10 47 8 39 -3 47 17 12 27 -23 6 -23
6 2 13 36 10 60 10 60 0z m-555 -63 c-9 -52 -8 -50 -37 -46 l-23 3 23 23 c12
12 22 24 22 26 0 3 -10 6 -22 9 -23 4 -23 4 2 15 39 17 42 15 35 -30z m-107
-10 c-49 -28 -48 -40 2 -32 50 8 51 -6 3 -31 -21 -10 -44 -24 -52 -30 -8 -5
-33 -11 -56 -11 -23 -1 -53 -8 -66 -17 -38 -24 -69 -31 -69 -15 0 18 62 48
100 48 36 0 60 33 34 48 -14 8 -14 10 0 21 15 13 97 39 126 40 8 0 -2 -9 -22
-21z m398 -10 c-3 -13 -6 -32 -6 -42 0 -32 -12 -9 -16 29 -2 26 1 35 13 35 11
0 14 -6 9 -22z m982 -13 c5 -38 -19 -55 -74 -55 -24 0 -46 -4 -49 -10 -3 -5
-15 -10 -26 -10 -10 0 -19 -4 -19 -9 0 -14 68 -37 118 -40 6 -1 12 -5 12 -11
0 -16 -42 -12 -105 10 -32 11 -66 20 -76 20 -26 0 -33 18 -16 38 8 9 16 24 19
32 4 14 168 69 198 66 9 -1 16 -14 18 -31z m-1522 -23 c-5 -8 -60 -34 -98 -46
-10 -3 -18 -15 -18 -26 0 -12 -5 -30 -11 -41 -6 -13 -7 -25 -1 -32 15 -19 21
-68 8 -72 -6 -2 -56 -18 -111 -35 -54 -17 -109 -37 -122 -45 -35 -24 -56 -20
-49 9 3 14 2 37 -4 51 -8 22 -15 26 -38 21 -15 -3 -33 -2 -41 3 -23 15 -1 33
38 29 35 -3 36 -2 39 34 3 30 8 38 33 47 18 6 29 17 29 29 0 16 10 20 59 25
61 7 129 21 196 43 46 15 99 18 91 6z m-2076 -62 c0 -5 -6 -10 -14 -10 -8 0
-18 5 -21 10 -3 6 3 10 14 10 12 0 21 -4 21 -10z m2334 -16 c9 -24 -2 -34 -36
-34 -16 0 -59 -16 -94 -35 -42 -23 -72 -33 -87 -30 -12 3 -39 -3 -62 -15 -55
-28 -65 -26 -65 15 0 41 20 55 81 55 30 0 50 6 66 22 18 16 36 22 82 22 33 1
63 5 67 9 13 13 42 7 48 -9z m-1667 -36 c28 -12 28 -12 -17 -16 -54 -4 -110 5
-110 18 0 14 94 12 127 -2z m123 -18 c0 -5 -7 -10 -15 -10 -8 0 -15 5 -15 10
0 6 7 10 15 10 8 0 15 -4 15 -10z m1550 -52 c-5 -54 -12 -64 -41 -60 -18 3
-36 -2 -47 -11 -23 -21 -69 -38 -112 -42 -19 -2 -64 -12 -100 -23 -36 -10 -80
-22 -99 -26 l-35 -6 25 26 c41 44 74 63 140 80 35 9 71 22 79 29 8 7 42 16 76
20 33 3 67 11 75 16 16 10 40 8 39 -3z m-1327 -13 c1 -5 -10 -11 -25 -13 -16
-2 -28 1 -28 7 0 20 49 26 53 6z m-838 -4 c3 -5 1 -12 -5 -16 -5 -3 -10 -16
-10 -27 0 -12 -7 -30 -16 -39 -14 -16 -15 -23 -5 -48 18 -42 11 -95 -14 -103
-11 -3 -83 -6 -160 -7 l-141 -1 6 52 5 51 140 72 c134 69 187 86 200 66z m745
-31 c16 -4 28 -17 34 -36 5 -16 19 -55 32 -87 13 -32 24 -60 24 -63 0 -2 -62
-3 -137 -2 -85 1 -109 3 -63 5 41 2 79 8 84 13 7 7 0 10 -18 10 -15 0 -25 4
-21 10 3 5 12 7 19 4 8 -3 17 -1 21 5 3 7 -2 11 -15 11 -11 0 -20 6 -19 13 3
23 -1 37 -11 37 -5 0 -10 -11 -10 -25 0 -23 -3 -25 -50 -25 l-50 0 0 44 c0 24
-3 57 -6 75 l-6 31 83 -7 c46 -3 95 -9 109 -13z m905 -118 l39 -7 -39 -17
c-85 -36 -138 -47 -154 -33 -2 2 3 17 10 34 19 43 26 44 144 23z m348 -12 c9
-11 23 -20 31 -20 8 0 22 -8 32 -17 16 -16 15 -18 -17 -28 -28 -10 -35 -18
-39 -46 -4 -27 -13 -38 -40 -51 -55 -27 -60 -24 -60 35 -1 30 -7 60 -15 72
-14 18 -17 18 -43 3 -15 -9 -53 -21 -84 -28 -32 -6 -67 -19 -78 -28 -19 -16
-20 -20 -7 -63 12 -37 12 -49 1 -63 -11 -16 -14 -14 -23 21 -6 21 -11 43 -11
49 0 6 -13 29 -30 52 -24 34 -26 41 -12 41 9 0 37 5 62 10 25 6 76 17 113 24
37 8 76 22 85 30 34 30 112 34 135 7z m-2642 -255 c13 4 19 2 19 -8 0 -11 -49
-32 -57 -24 -2 3 -5 122 -3 137 1 8 7 -13 12 -48 9 -55 12 -62 29 -57z m101
39 c-5 -46 1 -113 43 -454 14 -107 38 -314 55 -460 17 -146 53 -455 80 -686
51 -430 56 -480 40 -434 -8 22 -35 242 -95 755 -9 72 -40 337 -71 590 -74 621
-79 674 -66 708 16 39 20 34 14 -19z m2783 -3 c7 -12 -12 -24 -25 -16 -11 7
-4 25 10 25 5 0 11 -4 15 -9z m1125 -5 c0 -2 -7 -6 -15 -10 -8 -3 -15 -1 -15
4 0 6 7 10 15 10 8 0 15 -2 15 -4z m-8073 -68 c-3 -7 -5 -2 -5 12 0 14 2 19 5
13 2 -7 2 -19 0 -25z m3217 -123 c5 -131 0 -155 -31 -155 -10 0 -13 6 -8 18 3
9 9 79 12 155 3 77 10 133 14 125 4 -7 10 -72 13 -143z m-3390 116 c10 -11 16
-29 14 -41 -3 -18 -5 -19 -20 -8 -19 15 -35 68 -21 68 6 0 18 -9 27 -19z
m7118 -6 c0 -5 -5 -11 -11 -13 -6 -2 -11 4 -11 13 0 9 5 15 11 13 6 -2 11 -8
11 -13z m-7004 -94 c3 -50 1 -71 -7 -71 -13 0 -31 41 -24 54 3 4 5 31 4 59 -1
78 21 43 27 -42z m4165 20 c4 -53 17 -65 18 -15 1 33 46 -237 48 -288 1 -11
-9 -20 -26 -23 -76 -16 -102 -27 -108 -45 -4 -11 -11 -20 -16 -20 -17 0 -8
-35 16 -62 30 -35 48 -35 64 -2 9 21 17 25 44 22 39 -3 47 -13 47 -58 l0 -35
-67 -2 c-36 -1 -71 -7 -77 -13 -6 -6 -5 -32 4 -77 21 -108 27 -264 15 -433 -5
-85 -4 -109 8 -125 13 -17 17 -17 32 -5 12 10 15 23 11 45 -7 38 11 58 46 53
17 -2 24 -11 26 -30 3 -25 22 -41 22 -20 0 5 11 14 24 20 32 15 35 6 41 -135
3 -81 1 -112 -8 -116 -9 -3 -148 13 -195 22 -2 1 -2 16 0 34 3 27 0 32 -21 35
-13 2 -28 -2 -32 -10 -11 -16 -13 36 -13 346 l-1 239 -39 11 c-73 21 -75 78
-3 84 43 4 50 20 45 98 -3 43 -6 49 -26 52 -16 3 -29 15 -38 39 -20 46 -13 60
30 68 28 6 36 13 41 35 3 15 5 31 4 36 -1 5 -1 75 0 156 l1 146 32 21 c38 24
47 16 51 -48z m-2539 -18 c4 -4 17 -8 29 -8 32 0 31 -49 0 -53 -13 -2 -23 1
-23 7 0 6 -11 11 -24 11 -28 0 -40 14 -32 35 6 16 37 20 50 8z m-1384 -43 c0
-28 -4 -40 -15 -40 -24 0 -38 36 -23 60 21 33 38 24 38 -20z m118 -148 c2 -7
-3 -12 -12 -12 -9 0 -16 7 -16 16 0 17 22 14 28 -4z m2283 -209 c-1 -7 -6 -11
-10 -9 -3 2 -4 44 -1 93 l4 88 6 -80 c3 -44 3 -86 1 -92z m-869 95 c4 -56 2
-66 -19 -85 -26 -25 -30 -38 -8 -29 8 3 15 1 15 -5 0 -16 -29 -22 -45 -9 -9 7
-13 23 -10 38 23 136 28 152 45 152 15 0 19 -11 22 -62z m111 7 c-23 -30 -53
-50 -53 -34 0 16 52 69 62 63 4 -3 0 -16 -9 -29z m-233 -5 c0 -5 -7 -10 -15
-10 -8 0 -15 5 -15 10 0 6 7 10 15 10 8 0 15 -4 15 -10z m1390 -5 c-46 -18
-59 -18 -36 0 11 8 31 15 45 14 24 0 23 -2 -9 -14z m-1093 -17 c-3 -8 -6 -5
-6 6 -1 11 2 17 5 13 3 -3 4 -12 1 -19z m1567 -250 l1 -233 -24 3 c-14 1 -26
4 -28 6 -9 9 -7 316 2 313 5 -2 16 2 23 9 10 10 10 27 3 75 -11 65 -7 89 12
70 7 -7 11 -92 11 -243z m-2997 210 c-3 -8 -6 -5 -6 6 -1 11 2 17 5 13 3 -3 4
-12 1 -19z m1148 12 c3 -5 -8 -16 -24 -25 -26 -13 -30 -19 -25 -44 5 -23 2
-30 -15 -36 -11 -3 -25 -4 -31 0 -9 6 -12 93 -3 108 6 10 91 9 98 -3z m251
-85 l10 -86 -34 -20 c-28 -16 -37 -17 -49 -7 -12 10 -18 9 -29 -6 -7 -10 -15
-22 -16 -26 -2 -4 -16 -13 -33 -21 -20 -10 -32 -24 -35 -43 -5 -28 -5 -28 -23
-8 -16 17 -17 25 -6 68 12 47 41 83 66 84 7 0 15 11 19 25 6 26 28 33 40 14
10 -16 44 47 44 81 0 22 5 30 18 30 16 0 20 -13 28 -85z m-1764 -72 c-3 -71
-7 -93 -18 -93 -17 0 -17 1 -3 112 7 49 15 86 19 81 3 -4 4 -50 2 -100z m1834
19 c-3 -5 -15 -12 -26 -15 -17 -4 -20 0 -20 32 0 21 3 41 7 45 9 9 46 -51 39
-62z m389 -92 l0 -155 -25 -3 c-14 -2 -30 -8 -37 -14 -16 -13 -63 19 -63 42 0
10 12 28 26 39 25 20 27 26 29 127 3 111 10 127 50 122 18 -3 19 -12 20 -158z
m70 123 c-3 -14 2 -50 11 -81 17 -51 17 -55 1 -67 -15 -11 -16 -14 -2 -25 19
-16 19 -79 0 -104 -8 -11 -15 -30 -15 -43 0 -21 -3 -23 -39 -17 -34 5 -40 3
-46 -15 -5 -17 -14 -21 -48 -21 -23 0 -48 4 -56 9 -25 16 -3 28 49 27 49 -1
54 1 91 41 l39 43 0 145 c0 102 3 144 11 139 6 -3 8 -17 4 -31z m709 -8 c-7
-18 -69 -36 -92 -27 -12 4 0 11 38 23 30 9 56 17 57 18 1 1 0 -6 -3 -14z
m-2500 -29 c27 -35 36 -60 14 -38 -7 7 -20 12 -30 12 -13 0 -18 -8 -18 -30 0
-18 -5 -30 -13 -30 -38 0 -53 78 -17 87 11 3 20 12 20 19 0 23 16 16 44 -20z
m1976 9 c0 -8 -4 -17 -10 -20 -6 -4 -10 5 -10 20 0 15 4 24 10 20 6 -3 10 -12
10 -20z m-430 -45 c0 -9 9 -25 20 -35 17 -16 20 -31 20 -112 0 -57 -4 -92 -10
-88 -10 6 -80 -20 -80 -31 0 -4 8 -13 18 -20 16 -12 15 -13 -5 -14 -13 0 -23
4 -23 9 0 5 -15 18 -34 29 -30 18 -36 19 -47 6 -21 -26 -26 -15 -33 70 -7 96
-3 114 30 126 15 6 24 19 26 37 6 52 32 33 43 -32 10 -58 11 -59 18 -26 4 18
7 44 7 58 0 13 5 33 11 44 8 16 13 18 25 8 8 -6 14 -19 14 -29z m1114 -94 c3
-45 5 -105 3 -133 -2 -44 -5 -53 -21 -53 -12 0 -16 5 -13 14 3 8 2 16 -2 18
-9 3 -16 126 -13 211 2 44 3 46 21 35 16 -10 21 -27 25 -92z m-1816 68 c18 -4
32 -14 35 -25 3 -12 14 -19 31 -19 19 0 27 -6 32 -25 3 -14 3 -32 0 -41 -9
-24 -36 1 -36 34 0 32 -17 18 -22 -18 -3 -23 -8 -25 -57 -28 -80 -5 -80 -4
-63 67 16 65 19 67 80 55z m152 -55 c0 -5 -10 -9 -21 -9 -18 0 -19 2 -9 15 12
15 30 12 30 -6z m200 6 c0 -8 -4 -15 -10 -15 -5 0 -10 -8 -10 -17 -1 -17 -1
-17 -11 0 -8 13 -7 22 1 33 16 18 30 18 30 -1z m140 -96 c0 -44 5 -89 10 -100
6 -11 7 -25 3 -32 -4 -6 -8 -16 -8 -22 0 -5 -20 -11 -43 -13 -29 -2 -42 0 -37
7 3 6 14 11 23 11 28 0 46 16 36 31 -9 15 -16 188 -7 202 13 22 23 -13 23 -84z
m-139 28 c22 -16 35 -112 19 -132 -7 -8 -25 -15 -41 -15 -27 0 -29 3 -29 40 0
26 6 42 17 48 12 7 14 17 10 41 -7 33 -1 37 24 18z m-1477 -28 c-10 -16 -24
-9 -24 12 0 18 2 19 15 9 8 -7 12 -16 9 -21z m801 1 c-3 -5 -14 -10 -23 -9
-14 0 -13 2 3 9 27 11 27 11 20 0z m609 -46 c3 -9 6 -40 6 -70 0 -39 -4 -54
-14 -54 -7 0 -28 -3 -46 -6 l-32 -7 7 69 c4 38 13 72 19 76 19 13 54 9 60 -8z
m-572 -49 c7 -59 -7 -115 -30 -115 -9 0 -31 10 -49 23 -31 20 -33 26 -33 78 0
31 3 59 7 63 4 4 28 6 53 4 l45 -3 7 -50z m320 23 c5 -7 6 -26 3 -42 -3 -16
-5 -37 -5 -47 0 -13 -10 -20 -37 -25 -21 -4 -45 -10 -55 -15 -11 -6 -18 -4
-22 7 -7 19 -8 139 -1 146 10 9 108 -11 117 -24z m-656 -15 c-7 -7 -26 7 -26
19 0 6 6 6 15 -2 9 -7 13 -15 11 -17z m6314 18 c0 -11 -62 -51 -79 -51 -21 0
-11 18 22 38 35 22 57 27 57 13z m-5555 -18 c42 -20 45 -44 10 -78 -31 -32
-65 -33 -65 -2 0 28 11 97 16 97 2 0 19 -8 39 -17z m2191 9 c15 -10 40 -61 53
-107 5 -22 13 -50 16 -62 4 -14 2 -23 -5 -23 -8 0 -9 -10 -5 -28 7 -34 -10
-86 -26 -76 -8 5 -10 -32 -8 -130 4 -124 6 -137 23 -142 17 -6 15 -9 -15 -25
-19 -10 -42 -18 -51 -19 -23 0 -24 -37 -3 -67 12 -17 17 -62 20 -205 2 -101 2
-198 -2 -215 -8 -49 -29 -41 -37 13 -8 62 -8 1079 1 1087 8 9 25 9 39 -1z
m-3027 -28 c8 -7 -4 -12 -41 -19 -34 -7 -38 -5 -38 14 0 20 4 21 38 15 20 -4
39 -8 41 -10z m572 -13 c32 -26 14 -46 -31 -36 -35 8 -51 32 -29 46 21 13 34
11 60 -10z m-755 -81 c-4 -37 -3 -61 4 -65 5 -3 10 -15 10 -27 0 -16 5 -19 23
-14 12 3 27 6 34 6 6 0 13 12 15 27 4 39 38 45 35 7 -2 -22 3 -29 23 -34 18
-4 25 -13 25 -30 0 -19 6 -26 25 -28 l25 -3 -4 82 c-2 52 0 79 7 75 5 -3 12
-19 16 -36 5 -29 8 -31 39 -25 25 5 37 2 52 -14 10 -12 35 -24 56 -27 38 -6
78 -38 65 -51 -3 -4 -29 -6 -56 -6 -57 1 -90 -22 -90 -65 -1 -26 -2 -25 -21
11 -16 31 -24 37 -41 32 -11 -4 -43 -11 -72 -16 -110 -18 -116 -20 -116 -41 0
-18 -1 -18 -16 -4 -19 20 -33 20 -58 1 -11 -9 -41 -15 -68 -15 -64 0 -72 17
-61 131 l8 84 52 5 c28 3 55 9 60 14 8 8 9 12 12 81 1 34 3 37 12 21 7 -11 9
-41 5 -76z m1601 84 c-3 -3 -12 -4 -19 -1 -8 3 -5 6 6 6 11 1 17 -2 13 -5z
m-2072 -45 c6 -36 10 -40 29 -35 11 3 27 6 34 6 6 0 12 11 12 24 0 26 39 46
87 46 20 0 24 -4 21 -22 -2 -19 -8 -22 -35 -20 -30 3 -33 1 -33 -25 0 -19 -7
-31 -22 -38 -28 -13 -48 -46 -30 -52 6 -3 12 -12 12 -22 0 -9 7 -27 16 -40 22
-31 5 -48 -24 -23 -12 11 -22 24 -22 31 0 6 -6 11 -14 11 -17 0 -26 -74 -19
-146 6 -57 1 -65 -40 -57 l-28 6 21 22 c30 32 24 71 -10 67 -21 -4 -22 -2 -11
12 8 9 21 15 30 14 12 -2 15 4 13 22 -1 14 -4 52 -6 85 -5 95 -6 96 -15 91
-12 -8 -20 26 -14 58 9 43 40 34 48 -15z m7035 31 c-8 -5 -19 -10 -25 -10 -5
0 -3 5 5 10 8 5 20 10 25 10 6 0 3 -5 -5 -10z m-5310 -44 c0 -7 -10 -16 -22
-20 -28 -7 -49 11 -28 24 22 14 50 12 50 -4z m3250 -22 c0 -8 5 -12 10 -9 15
9 12 -8 -4 -31 -8 -10 -17 -16 -21 -13 -3 4 -22 3 -41 -1 -21 -5 -37 -4 -40 2
-4 6 -10 5 -15 -3 -13 -21 -11 -29 7 -22 15 5 15 3 -1 -20 -21 -32 -29 -35
-20 -7 4 12 2 20 -6 20 -9 0 -8 4 1 15 7 8 9 15 4 15 -5 0 -2 5 6 10 8 5 16
15 16 22 1 7 2 18 3 23 0 6 24 12 51 13 40 2 50 -1 50 -14z m-3855 -14 c0 -18
-16 -22 -35 -10 -13 9 -13 11 0 20 19 12 35 8 35 -10z m5912 -46 c58 -34 91
-109 36 -80 -36 18 -113 85 -113 97 0 16 32 9 77 -17z m-3663 -51 c3 -38 4
-153 1 -258 l-6 -190 -26 2 c-32 3 -42 12 -24 23 9 5 11 15 6 26 -4 11 -9 105
-11 209 -3 165 -2 194 13 223 27 49 40 40 47 -35z m-2239 7 c7 0 24 -9 39 -21
18 -14 34 -19 54 -15 15 3 34 2 42 -3 25 -17 -13 -24 -91 -19 -38 3 -71 2 -74
-1 -2 -4 -20 -5 -40 -3 -42 5 -42 26 1 29 16 0 32 2 36 2 4 1 3 14 -2 30 -10
35 1 51 14 22 5 -12 15 -21 21 -21z m1399 -32 c3 -40 7 -113 8 -163 2 -84 1
-90 -17 -90 -19 0 -20 8 -23 163 -2 134 0 162 12 162 10 0 15 -20 20 -72z
m1531 42 c3 -5 2 -10 -4 -10 -5 0 -13 5 -16 10 -3 6 -2 10 4 10 5 0 13 -4 16
-10z m505 -1 c5 9 10 10 14 2 4 -6 2 -11 -4 -11 -6 0 -9 -4 -6 -8 3 -5 -5 -8
-17 -7 -13 1 -24 10 -26 21 -3 16 -1 17 14 4 13 -11 18 -11 25 -1z m340 -3 c0
-2 -7 -9 -15 -16 -13 -11 -14 -10 -9 4 5 14 24 23 24 12z m439 -17 c1 8 4 12
7 8 3 -3 2 -16 -2 -29 -7 -22 -7 -22 -15 -3 -11 28 -10 56 1 30 5 -12 9 -14 9
-6z m-5599 2 c0 -12 -29 -23 -41 -15 -18 10 -9 24 16 24 14 0 25 -4 25 -9z
m1260 -47 c0 -2 -12 -4 -27 -4 -21 0 -24 3 -14 9 13 8 41 5 41 -5z m345 6 c-3
-5 -17 -10 -31 -10 -13 0 -24 5 -24 10 0 6 14 10 31 10 17 0 28 -4 24 -10z
m66 -1 c-16 -6 -28 -6 -35 1 -7 7 1 10 25 9 32 0 33 -1 10 -10z m-1572 -25
c10 -9 -12 -17 -59 -22 -46 -4 -50 -3 -50 16 0 19 4 21 53 15 28 -3 54 -7 56
-9z m3320 -44 c0 -8 -6 -4 -13 9 -8 14 -11 32 -8 40 5 12 8 10 13 -9 4 -14 7
-32 8 -40z m-2949 15 c13 -16 6 -35 -15 -35 -15 0 -28 27 -19 41 8 13 20 11
34 -6z m5147 -7 c-3 -8 -6 -5 -6 6 -1 11 2 17 5 13 3 -3 4 -12 1 -19z m26 7
c-3 -9 -8 -14 -10 -11 -3 3 -2 9 2 15 9 16 15 13 8 -4z m-896 -17 c-3 -8 -6
-5 -6 6 -1 11 2 17 5 13 3 -3 4 -12 1 -19z m540 16 c-3 -3 -12 -4 -19 -1 -8 3
-5 6 6 6 11 1 17 -2 13 -5z m-3897 -14 c-20 -13 -43 -13 -35 0 3 6 16 10 28
10 18 0 19 -2 7 -10z m55 0 c-3 -5 -13 -10 -21 -10 -8 0 -14 5 -14 10 0 6 9
10 21 10 11 0 17 -4 14 -10z m3934 -6 c2 -2 -17 -4 -43 -4 -28 0 -45 4 -41 10
5 9 74 4 84 -6z m118 10 c-3 -3 -12 -4 -19 -1 -8 3 -5 6 6 6 11 1 17 -2 13 -5z
m-4297 -8 c0 -3 -4 -8 -10 -11 -5 -3 -10 -1 -10 4 0 6 5 11 10 11 6 0 10 -2
10 -4z m3863 -3 c-7 -2 -21 -2 -30 0 -10 3 -4 5 12 5 17 0 24 -2 18 -5z m156
3 c-2 -2 -17 -6 -34 -10 -22 -5 -26 -4 -15 4 14 9 59 15 49 6z m373 -61 c3
-33 18 -163 33 -290 15 -126 29 -257 32 -290 l5 -61 -378 -43 c-209 -24 -383
-44 -389 -45 -12 -1 -9 -18 -59 384 l-42 335 31 7 c16 4 176 19 355 33 179 14
332 28 340 30 8 1 26 2 40 2 23 -2 26 -7 32 -62z m-4672 44 c0 -5 -13 -9 -30
-9 -16 0 -30 4 -30 8 0 5 14 9 30 10 17 0 30 -4 30 -9z m210 7 c0 -16 -14 -36
-25 -36 -17 0 -28 17 -20 30 6 10 45 15 45 6z m-930 -10 c0 -3 -4 -8 -10 -11
-5 -3 -10 -1 -10 4 0 6 5 11 10 11 6 0 10 -2 10 -4z m338 -22 c11 -3 10 -7 -2
-20 -20 -20 -13 -34 14 -27 15 4 20 0 20 -15 0 -16 -7 -20 -36 -20 -28 0 -37
5 -45 25 -7 18 -14 23 -27 18 -9 -4 -29 -12 -44 -17 -40 -14 -34 -33 14 -44
44 -10 53 -20 38 -44 -7 -12 -12 -12 -29 4 -12 11 -29 16 -41 13 -16 -4 -23 1
-30 17 -5 13 -18 26 -30 29 -27 7 -22 29 7 37 12 3 31 17 42 32 20 25 25 26
79 21 31 -2 63 -7 70 -9z m1110 -27 c4 -20 -25 -34 -40 -19 -15 15 -1 44 19
40 10 -2 19 -11 21 -21z m142 -22 c0 -8 -4 -15 -9 -15 -13 0 -22 16 -14 24 11
11 23 6 23 -9z m-1680 -16 c0 -10 -43 -29 -66 -29 -8 0 -14 10 -14 23 0 20 4
22 40 19 22 -2 40 -8 40 -13z m603 4 c4 -3 2 -12 -4 -20 -13 -15 -65 -18 -74
-4 -12 20 61 42 78 24z m7313 -55 l-1 -43 -58 -3 c-66 -3 -87 8 -87 45 0 22
-3 24 -30 19 -16 -3 -43 -9 -60 -12 -23 -4 -30 -2 -30 10 0 15 23 18 206 24
l62 2 -2 -42z m-7806 -29 c0 -27 4 -49 9 -49 10 0 7 -82 -3 -99 -14 -22 -24
-9 -34 47 -6 31 -15 73 -20 93 -10 39 -6 53 18 61 25 9 30 -1 30 -53z m1429
37 c7 -8 9 -31 5 -60 -7 -47 -18 -65 -29 -47 -3 6 -13 7 -22 4 -13 -5 -15 -2
-10 17 4 16 0 31 -11 43 -16 18 -15 20 8 38 30 22 44 24 59 5z m6663 -9 c13
-21 9 -65 -8 -71 -8 -3 -36 3 -61 15 -32 15 -48 18 -56 10 -13 -13 -96 -14
-115 -2 -8 4 -12 19 -10 32 3 23 6 24 90 24 47 0 90 4 94 8 11 10 57 -1 66
-16z m-8299 -64 c-7 -58 -20 -78 -39 -62 -18 14 -19 95 -1 102 39 16 47 8 40
-40z m367 6 c0 -16 -4 -28 -9 -25 -8 5 -3 56 5 56 2 0 4 -14 4 -31z m620 11
c0 -5 -4 -10 -10 -10 -5 0 -10 5 -10 10 0 6 5 10 10 10 6 0 10 -4 10 -10z
m-100 -25 c0 -15 9 -31 25 -41 35 -23 33 -54 -2 -55 -16 -1 -32 0 -38 1 -5 2
-22 2 -37 1 -23 -1 -28 3 -28 22 0 16 9 28 26 35 14 7 22 17 19 23 -10 15 2
39 20 39 9 0 15 -9 15 -25z m3810 -22 c0 -58 -15 -68 -17 -12 -1 27 2 49 7 49
6 0 10 -17 10 -37z m-4640 -98 c0 -36 -5 -41 -28 -27 -10 7 -11 32 -3 60 1 1
8 2 16 2 10 0 15 -11 15 -35z m650 -3 c0 -11 -11 -24 -25 -30 -30 -14 -34 1
-8 30 21 23 33 23 33 0z m2302 -22 c-6 -41 -12 -38 -12 6 0 19 4 33 8 30 5 -3
7 -19 4 -36z m-2202 21 c0 -13 -29 -35 -37 -28 -7 8 15 37 28 37 5 0 9 -4 9
-9z m3897 -13 c-3 -8 -6 -5 -6 6 -1 11 2 17 5 13 3 -3 4 -12 1 -19z m-3847
-18 c-19 -13 -30 -13 -30 0 0 6 10 10 23 10 18 0 19 -2 7 -10z m-490 -67 c0
-12 9 -27 20 -33 16 -8 20 -21 20 -58 0 -43 -3 -49 -38 -72 -52 -35 -50 -35
-54 2 -3 30 -6 33 -41 36 -29 3 -37 7 -35 20 2 9 12 18 23 21 39 7 65 32 65
63 0 40 19 76 31 57 5 -8 9 -24 9 -36z m100 41 c0 -10 -44 -43 -57 -44 -22 0
-14 19 15 34 29 16 42 19 42 10z m7278 0 c20 -6 22 -12 22 -71 0 -60 -1 -63
-20 -53 -11 6 -19 16 -17 22 1 6 -8 17 -20 23 -29 15 -61 57 -56 73 5 13 52
16 91 6z m-7000 -34 c37 -23 38 -43 3 -48 -16 -3 -24 2 -28 18 -4 17 -11 20
-29 16 -24 -6 -40 7 -29 24 10 16 47 11 83 -10z m1165 -15 c-7 -21 -13 -19
-13 6 0 11 4 18 10 14 5 -3 7 -12 3 -20z m1686 -127 c-1 -57 -3 -94 -6 -83 -3
11 -9 24 -14 30 -20 21 -4 155 18 155 2 0 2 -46 2 -102z m-2894 76 c18 -19 3
-47 -21 -37 -7 3 -17 -2 -20 -11 -3 -9 -14 -16 -24 -16 -10 0 -24 -10 -32 -22
-13 -20 -17 -21 -32 -9 -9 7 -16 20 -16 27 0 12 -5 12 -30 -1 -39 -20 -70 -19
-70 1 0 26 31 43 80 44 28 0 57 8 75 20 36 24 68 25 90 4z m3982 -31 c-3 -10
-5 -2 -5 17 0 19 2 27 5 18 2 -10 2 -26 0 -35z m-3915 -48 c0 -5 -5 -11 -11
-13 -6 -2 -11 4 -11 13 0 9 5 15 11 13 6 -2 11 -8 11 -13z m-337 -35 c-3 -5
-11 -10 -16 -10 -6 0 -7 5 -4 10 3 6 11 10 16 10 6 0 7 -4 4 -10z m218 -12
c16 -24 0 -63 -30 -77 -23 -11 -29 -10 -39 4 -10 13 -9 23 4 48 26 50 45 57
65 25z m-416 -20 c-3 -8 -6 -5 -6 6 -1 11 2 17 5 13 3 -3 4 -12 1 -19z m216
-27 c-3 -11 -14 -27 -24 -37 -25 -23 -25 -54 1 -54 19 0 20 -7 21 -127 0 -71
3 -153 5 -183 5 -64 -12 -183 -32 -222 -8 -16 -23 -28 -33 -28 -14 0 -22 -12
-30 -45 -12 -46 -24 -57 -35 -29 -11 28 -6 51 13 68 11 10 23 32 26 50 4 17
13 41 21 54 17 27 15 133 -2 139 -6 2 -17 -17 -24 -42 -7 -25 -15 -45 -19 -45
-7 1 -41 72 -41 87 0 6 7 16 15 23 8 7 15 21 15 31 0 11 10 23 24 29 32 12 41
28 37 67 -1 18 3 49 9 68 10 30 9 42 -5 70 -19 42 -23 43 -35 10 -12 -32 -40
-33 -40 -2 0 13 -5 28 -11 34 -7 7 0 17 24 32 19 12 38 28 41 36 5 15 66 45
78 39 3 -2 4 -13 1 -23z m107 15 c0 -14 -29 -31 -38 -21 -6 6 18 35 29 35 5 0
9 -6 9 -14z m97 -108 c-2 -43 -6 -53 -21 -56 -39 -8 -50 52 -11 62 16 4 25 13
25 26 0 11 2 20 5 20 2 0 4 -24 2 -52z m3584 -1 c-8 -8 -11 -3 -11 19 1 25 2
27 11 11 8 -14 8 -22 0 -30z m3689 1 c0 -6 -6 -5 -15 2 -8 7 -15 14 -15 16 0
2 7 1 15 -2 8 -4 15 -11 15 -16z m-3410 -13 c0 -8 -4 -15 -10 -15 -5 0 -7 7
-4 15 4 8 8 15 10 15 2 0 4 -7 4 -15z m1207 -402 c23 -191 39 -351 35 -354 -7
-7 -473 -79 -507 -79 -14 0 -25 13 -38 44 -10 24 -33 61 -51 82 -92 108 -166
217 -166 244 0 43 17 79 51 111 22 21 29 34 24 49 -3 11 -10 20 -15 20 -20 0
-80 -75 -86 -106 -15 -79 -49 -8 -65 134 -6 57 -10 104 -8 106 5 4 725 94 759
95 l26 1 41 -347z m-5497 287 c0 -5 -4 -10 -10 -10 -5 0 -10 5 -10 10 0 6 5
10 10 10 6 0 10 -4 10 -10z m4090 -20 c0 -5 -5 -10 -11 -10 -5 0 -7 5 -4 10 3
6 8 10 11 10 2 0 4 -4 4 -10z m-3698 -32 c-9 -9 -12 -7 -12 12 0 19 3 21 12
12 9 -9 9 -15 0 -24z m-602 -416 c0 -4 -13 -23 -30 -42 -28 -34 -29 -34 -30
-11 0 14 7 33 17 43 16 18 43 25 43 10z m230 -24 c0 -6 -21 -39 -47 -75 -78
-105 -94 -127 -103 -142 -4 -8 -22 -16 -40 -17 -17 -1 -40 -10 -51 -20 -20
-18 -21 -18 -8 11 7 17 19 39 26 49 9 14 9 23 2 32 -7 9 -7 19 0 33 12 22 15
71 4 71 -3 0 -15 -7 -25 -17 -10 -9 -18 -12 -18 -6 0 23 43 45 134 67 53 13
99 26 103 29 8 8 23 -1 23 -15z m-235 -187 c-3 -11 -15 -23 -26 -26 -10 -4
-19 -11 -19 -16 0 -5 -5 -9 -10 -9 -12 0 16 49 39 67 19 16 25 10 16 -16z
m158 -108 c-43 -71 -74 -113 -83 -113 -18 0 -11 25 15 52 14 15 25 30 25 35 0
9 52 64 57 59 2 -2 -4 -17 -14 -33z m-144 -102 c-11 -22 -25 -41 -29 -41 -12
0 -22 18 -12 22 4 1 18 18 31 36 31 44 37 34 10 -17z m110 -117 c-29 -43 -54
-81 -56 -83 -2 -3 -8 0 -15 7 -8 8 -3 21 23 50 19 22 47 62 63 88 19 31 31 43
33 33 2 -8 -20 -51 -48 -95z m-121 -111 c-13 -27 -29 -34 -36 -15 -1 5 7 21
20 37 25 32 36 19 16 -22z m6562 11 c0 -9 -5 -14 -12 -12 -18 6 -21 28 -4 28
9 0 16 -7 16 -16z m-6464 -21 c-10 -10 -19 5 -10 18 6 11 8 11 12 0 2 -7 1
-15 -2 -18z m6209 -3 c-3 -5 1 -10 10 -10 12 0 15 -6 9 -22 -3 -13 -8 -25 -10
-27 -2 -2 -30 9 -63 25 l-60 29 32 6 c53 10 89 10 82 -1z m401 -87 c-1 -26
-14 -29 -39 -10 -11 7 -15 20 -11 33 5 18 9 20 29 10 15 -7 22 -18 21 -33z
m-153 -23 c7 -6 23 -19 37 -29 34 -26 21 -36 -23 -17 -40 16 -69 56 -42 56 9
0 21 -5 28 -10z m137 -80 c0 -5 -6 -10 -14 -10 -8 0 -18 5 -21 10 -3 6 3 10
14 10 12 0 21 -4 21 -10z m106 -54 c32 -24 7 -30 -28 -7 -27 17 -29 21 -12 21
11 0 29 -6 40 -14z"/>
<path d="M7917 4193 c-12 -11 -8 -23 8 -23 8 0 15 7 15 15 0 16 -12 20 -23 8z"/>
<path d="M7723 4103 c-17 -6 -17 -33 0 -33 14 0 37 20 37 32 0 9 -18 9 -37 1z"/>
<path d="M6620 4150 c0 -5 5 -10 10 -10 6 0 10 5 10 10 0 6 -4 10 -10 10 -5 0
-10 -4 -10 -10z"/>
<path d="M2340 2753 c0 -13 5 -23 10 -23 13 0 13 11 0 30 -8 12 -10 11 -10 -7z"/>
<path d="M770 2442 c0 -15 -6 -34 -12 -41 -11 -10 -9 -15 7 -27 27 -20 39 -13
49 29 8 32 7 39 -10 52 -28 21 -34 18 -34 -13z"/>
<path d="M5407 2293 c-12 -11 -7 -43 10 -70 16 -23 17 -24 24 -7 13 33 10 72
-7 78 -19 7 -19 7 -27 -1z m31 -31 c2 -15 -2 -22 -12 -22 -11 0 -16 9 -16 26
0 31 23 28 28 -4z"/>
<path d="M5040 1995 c-12 -14 -11 -22 5 -52 l19 -35 15 32 c22 46 -10 90 -39
55z m37 -11 c8 -21 -13 -42 -28 -27 -13 13 -5 43 11 43 6 0 13 -7 17 -16z"/>
<path d="M5281 1942 c-6 -12 -4 -27 9 -51 17 -33 18 -34 29 -13 14 27 14 55
-1 70 -16 16 -26 15 -37 -6z m36 -8 c8 -22 -15 -44 -26 -25 -10 16 -4 41 10
41 5 0 12 -7 16 -16z"/>
<path d="M5609 1914 c-10 -12 -9 -22 5 -52 l18 -37 15 28 c23 45 -8 97 -38 61z
m36 -24 c0 -22 -29 -18 -33 3 -3 14 1 18 15 15 10 -2 18 -10 18 -18z"/>
<path d="M5007 1723 c-13 -12 -7 -41 12 -64 l19 -24 11 28 c16 42 -15 87 -42
60z m36 -16 c7 -19 -8 -41 -22 -33 -16 10 -14 46 3 46 8 0 16 -6 19 -13z"/>
<path d="M5740 1415 c-11 -13 -10 -14 4 -9 9 3 16 10 16 15 0 13 -6 11 -20 -6z"/>
<path d="M5715 1361 c-8 -27 -111 -110 -165 -133 -25 -11 -58 -26 -74 -34 -16
-8 -36 -14 -45 -15 -10 0 -12 -2 -4 -6 28 -11 178 55 198 87 3 6 10 8 15 5 11
-7 90 81 90 100 0 21 -7 19 -15 -4z"/>
<path d="M5210 1255 c0 -20 5 -25 26 -25 36 0 99 -65 113 -117 19 -69 -13
-158 -65 -182 -16 -7 -20 -16 -17 -35 7 -33 14 -32 53 0 107 91 97 283 -19
361 -19 13 -47 23 -62 23 -24 0 -29 -4 -29 -25z"/>
<path d="M5558 1133 c7 -3 16 -2 19 1 4 3 -2 6 -13 5 -11 0 -14 -3 -6 -6z"/>
<path d="M5255 1110 c-8 -13 3 -30 20 -30 23 0 25 15 5 28 -12 7 -21 8 -25 2z"/>
<path d="M5220 1088 c-11 -23 -10 -29 4 -44 24 -23 30 -12 19 33 l-10 38 -13
-27z"/>
<path d="M5164 1086 c-9 -25 0 -61 16 -61 9 0 15 9 15 25 0 15 -5 24 -12 23
-7 -2 -13 1 -13 6 0 5 6 12 13 14 9 4 9 6 -1 6 -7 1 -15 -5 -18 -13z m26 -36
c0 -5 -4 -10 -10 -10 -5 0 -10 5 -10 10 0 6 5 10 10 10 6 0 10 -4 10 -10z"/>
<path d="M5300 1072 c0 -7 -4 -11 -9 -7 -5 3 -13 0 -17 -6 -4 -7 -3 -9 4 -5 5
3 12 0 15 -6 3 -9 8 -10 15 -3 7 7 8 15 2 25 -7 11 -10 11 -10 2z"/>
<path d="M5558 1033 c7 -3 16 -2 19 1 4 3 -2 6 -13 5 -11 0 -14 -3 -6 -6z"/>
<path d="M5490 859 c-25 -3 -40 -7 -35 -9 14 -3 79 1 84 6 9 8 -5 9 -49 3z"/>
<path d="M5343 843 c-34 -7 -28 -20 7 -15 16 2 27 8 24 13 -3 5 -6 8 -7 8 -1
-1 -12 -4 -24 -6z"/>
<path d="M5390 846 c0 -2 11 -6 25 -8 13 -3 22 -1 19 3 -5 9 -44 13 -44 5z"/>
<path d="M452 4710 c0 -14 2 -19 5 -12 2 6 2 18 0 25 -3 6 -5 1 -5 -13z"/>
<path d="M2985 4645 c-39 -61 -42 -70 -18 -56 12 6 20 5 29 -6 20 -28 33 -5
31 57 -1 33 -3 60 -4 60 -2 0 -19 -25 -38 -55z"/>
<path d="M2676 4631 c-9 -14 5 -20 76 -30 67 -9 78 -7 78 13 0 9 -18 13 -57
15 -32 1 -65 4 -75 7 -9 2 -19 0 -22 -5z"/>
<path d="M3589 4590 c-19 -20 -51 -48 -71 -63 -31 -23 -38 -34 -37 -60 0 -18
4 -40 8 -50 6 -16 10 -15 40 13 26 25 39 31 60 27 23 -5 29 -1 39 25 7 18 8
37 3 46 -5 9 -4 23 2 33 8 12 8 24 0 41 l-10 23 -34 -35z"/>
<path d="M249 4578 c-3 -32 3 -74 12 -82 5 -6 9 8 9 36 0 26 -4 50 -10 53 -5
3 -10 0 -11 -7z"/>
<path d="M0 4377 c0 -89 3 -106 19 -121 25 -22 29 -13 37 72 7 78 -3 119 -36
140 -19 12 -20 9 -20 -91z"/>
<path d="M3338 4352 c-53 -54 -129 -126 -167 -162 -70 -65 -71 -66 -59 -98 10
-26 16 -31 33 -25 27 8 89 5 122 -8 l26 -10 -6 63 -5 62 42 42 c46 47 93 65
107 43 7 -11 9 -9 9 6 3 64 8 113 13 133 6 24 0 53 -12 51 -3 0 -50 -44 -103
-97z"/>
<path d="M2670 4384 c0 -27 4 -43 10 -39 6 3 10 17 10 31 0 14 7 27 15 30 20
8 9 24 -16 24 -16 0 -19 -7 -19 -46z"/>
<path d="M2786 4372 l-16 -30 28 7 c17 5 27 14 27 26 0 30 -23 28 -39 -3z"/>
<path d="M2899 4319 c3 -70 0 -85 -18 -110 -22 -29 -30 -119 -11 -119 15 0 51
42 67 79 14 34 10 84 -10 109 -6 7 -7 35 -3 67 5 48 4 55 -11 55 -16 0 -18 -9
-14 -81z"/>
<path d="M3600 4371 c0 -42 13 -111 21 -111 5 0 9 29 9 65 0 51 -3 65 -15 65
-8 0 -15 -8 -15 -19z"/>
<path d="M2528 4318 c-1 -18 -1 -42 -1 -53 1 -11 3 -42 4 -68 1 -26 7 -46 12
-44 5 1 28 29 50 60 35 50 39 60 29 81 -9 21 -61 56 -84 56 -4 0 -9 -15 -10
-32z"/>
<path d="M2441 4306 c-28 -45 -26 -56 9 -56 29 0 30 2 30 45 0 54 -11 57 -39
11z"/>
<path d="M2964 4296 c-10 -8 -16 -17 -13 -20 3 -3 14 3 24 14 21 23 17 26 -11
6z"/>
<path d="M2682 4230 c-15 -25 -26 -417 -11 -425 5 -4 22 9 37 27 15 18 44 50
65 71 20 22 37 41 37 43 0 3 -11 2 -25 -2 -34 -8 -32 10 4 44 29 26 30 31 33
132 l3 105 -57 -3 c-43 -3 -58 0 -65 12 -7 14 -10 13 -21 -4z"/>
<path d="M585 4230 c3 -5 10 -10 16 -10 5 0 9 5 9 10 0 6 -7 10 -16 10 -8 0
-12 -4 -9 -10z"/>
<path d="M3610 4200 c0 -25 4 -39 10 -35 6 3 10 19 10 35 0 16 -4 32 -10 35
-6 4 -10 -10 -10 -35z"/>
<path d="M3435 4075 c0 -84 3 -157 8 -161 9 -10 9 287 -1 303 -4 6 -7 -58 -7
-142z"/>
<path d="M620 4192 c6 -13 14 -21 18 -18 3 4 -2 14 -12 24 -18 16 -18 16 -6
-6z"/>
<path d="M3007 4150 c-16 -22 -34 -40 -41 -40 -8 0 -26 -17 -42 -37 -15 -21
-32 -39 -36 -41 -11 -5 -10 -22 2 -22 5 0 16 13 25 29 8 16 34 40 57 53 24 13
47 33 53 46 5 12 15 22 22 22 7 0 13 7 13 15 0 27 -24 15 -53 -25z"/>
<path d="M2605 4127 c-4 -10 -5 -21 -1 -24 10 -10 18 4 13 24 -4 17 -4 17 -12
0z"/>
<path d="M2561 4063 c-35 -41 -39 -57 -48 -188 -4 -66 -9 -104 -10 -85 -9 114
-15 160 -22 160 -11 0 -81 -98 -81 -113 0 -8 -2 -16 -5 -19 -8 -7 -12 -251 -5
-278 7 -24 8 -24 58 30 32 34 52 64 52 79 0 19 3 21 14 12 11 -9 25 0 67 44
30 31 56 68 59 83 14 75 -23 303 -49 302 -3 0 -17 -13 -30 -27z m-107 -349 c9
-22 8 -24 -9 -24 -8 0 -15 9 -15 20 0 24 15 27 24 4z"/>
<path d="M2962 3986 l-104 -102 0 -235 c1 -128 1 -240 1 -246 1 -21 31 -15 62
11 16 14 36 22 47 19 24 -6 102 45 95 63 -7 20 -23 17 -49 -7 -26 -25 -44 -18
-44 16 0 30 34 63 75 73 l30 8 3 252 c1 139 -1 252 -5 251 -5 0 -55 -47 -111
-103z m81 -281 c-3 -9 -8 -14 -10 -11 -3 3 -2 9 2 15 9 16 15 13 8 -4z"/>
<path d="M3610 4060 c0 -5 5 -10 10 -10 6 0 10 5 10 10 0 6 -4 10 -10 10 -5 0
-10 -4 -10 -10z"/>
<path d="M3250 4032 c-14 -2 -30 -8 -37 -14 -14 -11 -15 -78 -1 -78 4 0 3 -9
-4 -20 -18 -28 -2 -37 25 -13 12 11 30 23 40 26 13 5 17 18 17 51 0 50 -4 54
-40 48z"/>
<path d="M3605 4030 c-9 -14 4 -70 16 -70 5 0 9 18 9 40 0 38 -12 52 -25 30z"/>
<path d="M697 4005 c-4 -9 -7 -35 -7 -57 0 -32 8 -48 40 -85 24 -28 42 -59 46
-82 9 -55 12 -61 34 -61 17 0 20 6 20 41 0 31 -10 58 -40 105 -21 34 -42 73
-45 86 -3 12 -14 34 -24 47 -16 21 -19 21 -24 6z"/>
<path d="M3657 3906 c-7 -18 12 -36 38 -36 12 0 26 -5 31 -10 8 -8 15 -6 24 5
11 13 11 18 -1 29 -22 21 -86 29 -92 12z"/>
<path d="M3600 3879 c0 -24 23 -21 28 4 2 10 -3 17 -12 17 -10 0 -16 -9 -16
-21z"/>
<path d="M3432 3860 c0 -14 2 -19 5 -12 2 6 2 18 0 25 -3 6 -5 1 -5 -13z"/>
<path d="M2728 3764 c-43 -41 -78 -79 -78 -84 0 -5 19 -13 42 -17 39 -8 66
-33 35 -33 -10 0 -16 -13 -19 -36 -3 -27 0 -39 16 -49 29 -21 36 -10 36 54 0
61 13 87 45 93 15 2 21 12 23 43 4 45 -5 105 -16 105 -4 0 -42 -34 -84 -76z"/>
<path d="M3530 3832 c0 -16 -78 -60 -88 -50 -6 6 -11 2 -15 -11 -4 -15 3 -23
29 -36 33 -15 35 -15 67 8 17 14 42 28 55 32 27 8 29 40 3 55 -24 12 -51 13
-51 2z"/>
<path d="M2304 3724 c-11 -16 -38 -48 -61 -71 -24 -22 -43 -46 -43 -52 0 -6
-11 -13 -25 -17 -19 -5 -24 -11 -20 -25 4 -11 2 -19 -4 -19 -16 0 -13 -27 3
-33 8 -3 16 -16 18 -29 2 -15 10 -23 23 -23 18 0 20 8 23 68 2 37 7 67 12 67
5 0 19 18 31 40 13 22 28 39 33 37 6 -2 12 -41 14 -90 1 -48 6 -87 11 -87 11
0 22 231 12 249 -7 11 -13 8 -27 -15z"/>
<path d="M3377 3733 c-10 -10 -32 -23 -50 -29 -21 -7 -33 -18 -35 -32 -2 -13
-11 -22 -21 -22 -28 0 -81 -30 -81 -45 0 -8 -20 -23 -43 -34 -55 -25 -76 -48
-53 -57 9 -4 25 1 35 10 10 9 24 16 33 16 17 0 130 58 139 72 7 10 59 42 107
63 37 18 37 18 16 50 -19 30 -24 30 -47 8z"/>
<path d="M406 3731 c-4 -7 -5 -15 -2 -18 9 -9 19 4 14 18 -4 11 -6 11 -12 0z"/>
<path d="M890 3728 c0 -7 5 -20 10 -28 8 -12 10 -9 10 13 0 15 -4 27 -10 27
-5 0 -10 -6 -10 -12z"/>
<path d="M840 3626 c0 -84 0 -84 34 -110 19 -14 41 -26 49 -26 8 0 22 -10 31
-22 9 -13 15 -18 12 -12 -13 27 -16 77 -5 90 6 8 8 21 5 30 -5 13 -9 14 -21 4
-19 -15 -17 -17 -40 45 -18 51 -41 85 -57 85 -4 0 -8 -38 -8 -84z"/>
<path d="M3600 3681 c0 -6 5 -13 10 -16 6 -3 10 1 10 9 0 9 -4 16 -10 16 -5 0
-10 -4 -10 -9z"/>
<path d="M910 3666 c0 -8 5 -18 10 -21 6 -3 10 1 10 9 0 8 -4 18 -10 21 -5 3
-10 -1 -10 -9z"/>
<path d="M3608 3634 c-5 -4 -8 -19 -8 -33 0 -18 3 -22 11 -14 6 6 9 21 7 33
-1 12 -6 18 -10 14z"/>
<path d="M560 3566 c0 -31 6 -34 13 -6 3 11 1 23 -4 26 -5 3 -9 -6 -9 -20z"/>
<path d="M3560 3550 c20 -13 40 -13 40 0 0 6 -12 10 -27 10 -22 0 -25 -2 -13
-10z"/>
<path d="M2080 3525 c0 -8 7 -15 15 -15 8 0 15 4 15 9 0 5 -7 11 -15 15 -9 3
-15 0 -15 -9z"/>
<path d="M2720 3495 c-11 -13 -11 -19 3 -33 20 -19 41 -5 35 24 -4 24 -22 28
-38 9z"/>
<path d="M2339 3464 c-7 -8 -29 -27 -46 -43 -32 -28 -43 -51 -24 -51 11 0 95
99 89 105 -2 2 -11 -2 -19 -11z"/>
<path d="M6263 3453 c26 -2 68 -2 95 0 26 2 4 3 -48 3 -52 0 -74 -1 -47 -3z"/>
<path d="M6461 3444 c0 -11 3 -14 6 -6 3 7 2 16 -1 19 -3 4 -6 -2 -5 -13z"/>
<path d="M1600 3434 c0 -9 5 -14 12 -12 18 6 21 28 4 28 -9 0 -16 -7 -16 -16z"/>
<path d="M5938 3443 c12 -2 32 -2 45 0 12 2 2 4 -23 4 -25 0 -35 -2 -22 -4z"/>
<path d="M6078 3443 c6 -2 18 -2 25 0 6 3 1 5 -13 5 -14 0 -19 -2 -12 -5z"/>
<path d="M2708 3404 c-2 -19 -2 -37 1 -39 4 -2 19 8 35 21 23 20 26 27 16 39
-23 28 -47 18 -52 -21z"/>
<path d="M2815 3429 c-4 -6 -5 -12 -2 -15 2 -3 7 2 10 11 7 17 1 20 -8 4z"/>
<path d="M5606 3433 c5 -5 12 -12 16 -18 4 -6 8 -2 8 8 0 9 -7 17 -17 17 -9 0
-12 -3 -7 -7z"/>
<path d="M5702 3410 c0 -19 2 -27 5 -17 2 9 2 25 0 35 -3 9 -5 1 -5 -18z"/>
<path d="M850 3423 c0 -7 4 -13 9 -13 4 0 13 -15 19 -32 7 -25 10 -28 11 -12
1 12 -8 32 -19 45 -10 13 -19 18 -20 12z"/>
<path d="M5323 3423 c9 -2 23 -2 30 0 6 3 -1 5 -18 5 -16 0 -22 -2 -12 -5z"/>
<path d="M5393 3423 c9 -2 25 -2 35 0 9 3 1 5 -18 5 -19 0 -27 -2 -17 -5z"/>
<path d="M5488 3423 c6 -2 18 -2 25 0 6 3 1 5 -13 5 -14 0 -19 -2 -12 -5z"/>
<path d="M963 3400 c-26 -40 -16 -88 27 -132 21 -23 42 -55 45 -72 12 -60 16
-66 40 -66 13 0 27 -4 30 -10 3 -5 10 -10 15 -10 15 0 -2 45 -26 68 -20 19
-22 27 -14 43 6 11 8 25 4 31 -5 7 -10 28 -14 48 -4 26 -10 35 -25 35 -16 0
-21 8 -25 40 -6 46 -36 60 -57 25z"/>
<path d="M5123 3413 c9 -2 25 -2 35 0 9 3 1 5 -18 5 -19 0 -27 -2 -17 -5z"/>
<path d="M4748 3403 c17 -2 47 -2 65 0 17 2 3 4 -33 4 -36 0 -50 -2 -32 -4z"/>
<path d="M2766 3335 c-9 -14 -23 -25 -30 -25 -7 0 -19 -7 -26 -15 -7 -8 -22
-15 -34 -15 -27 0 -46 -18 -46 -42 0 -25 23 -23 57 5 41 33 111 77 123 77 16
0 12 27 -6 34 -21 8 -20 9 -38 -19z"/>
<path d="M1225 3319 c-4 -6 -4 -13 -1 -16 8 -8 36 5 36 17 0 13 -27 13 -35 -1z"/>
<path d="M6482 3300 c0 -14 2 -19 5 -12 2 6 2 18 0 25 -3 6 -5 1 -5 -13z"/>
<path d="M4692 3290 c0 -14 2 -19 5 -12 2 6 2 18 0 25 -3 6 -5 1 -5 -13z"/>
<path d="M5641 3264 c0 -11 3 -14 6 -6 3 7 2 16 -1 19 -3 4 -6 -2 -5 -13z"/>
<path d="M6243 3263 c15 -2 39 -2 55 0 15 2 2 4 -28 4 -30 0 -43 -2 -27 -4z"/>
<path d="M5142 3240 c0 -14 2 -19 5 -12 2 6 2 18 0 25 -3 6 -5 1 -5 -13z"/>
<path d="M6048 3253 c23 -2 59 -2 80 0 20 2 1 4 -43 4 -44 0 -61 -2 -37 -4z"/>
<path d="M5868 3243 c6 -2 18 -2 25 0 6 3 1 5 -13 5 -14 0 -19 -2 -12 -5z"/>
<path d="M5923 3243 c9 -2 25 -2 35 0 9 3 1 5 -18 5 -19 0 -27 -2 -17 -5z"/>
<path d="M4751 3214 c0 -11 3 -14 6 -6 3 7 2 16 -1 19 -3 4 -6 -2 -5 -13z"/>
<path d="M4991 3214 c0 -11 3 -14 6 -6 3 7 2 16 -1 19 -3 4 -6 -2 -5 -13z"/>
<path d="M6491 3214 c0 -11 3 -14 6 -6 3 7 2 16 -1 19 -3 4 -6 -2 -5 -13z"/>
<path d="M4701 3204 c0 -11 3 -14 6 -6 3 7 2 16 -1 19 -3 4 -6 -2 -5 -13z"/>
<path d="M7200 3194 c0 -8 5 -12 10 -9 6 3 10 10 10 16 0 5 -4 9 -10 9 -5 0
-10 -7 -10 -16z"/>
<path d="M1170 3180 c0 -5 7 -10 16 -10 8 0 12 5 9 10 -3 6 -10 10 -16 10 -5
0 -9 -4 -9 -10z"/>
<path d="M5731 3154 c0 -11 3 -14 6 -6 3 7 2 16 -1 19 -3 4 -6 -2 -5 -13z"/>
<path d="M4712 3125 c0 -16 2 -22 5 -12 2 9 2 23 0 30 -3 6 -5 -1 -5 -18z"/>
<path d="M6502 3120 c0 -19 2 -27 5 -17 2 9 2 25 0 35 -3 9 -5 1 -5 -18z"/>
<path d="M5152 3115 c0 -16 2 -22 5 -12 2 9 2 23 0 30 -3 6 -5 -1 -5 -18z"/>
<path d="M5567 3119 c4 -13 8 -18 11 -10 2 7 -1 18 -6 23 -8 8 -9 4 -5 -13z"/>
<path d="M4809 3113 c-13 -17 -13 -17 6 -3 11 8 22 16 24 17 2 2 0 3 -6 3 -6
0 -17 -8 -24 -17z"/>
<path d="M6288 3123 c6 -2 18 -2 25 0 6 3 1 5 -13 5 -14 0 -19 -2 -12 -5z"/>
<path d="M6338 3123 c6 -2 18 -2 25 0 6 3 1 5 -13 5 -14 0 -19 -2 -12 -5z"/>
<path d="M7200 3111 c0 -12 5 -21 10 -21 6 0 10 6 10 14 0 8 -4 18 -10 21 -5
3 -10 -3 -10 -14z"/>
<path d="M5301 3104 c0 -11 3 -14 6 -6 3 7 2 16 -1 19 -3 4 -6 -2 -5 -13z"/>
<path d="M5491 3104 c0 -11 3 -14 6 -6 3 7 2 16 -1 19 -3 4 -6 -2 -5 -13z"/>
<path d="M5661 3104 c0 -11 3 -14 6 -6 3 7 2 16 -1 19 -3 4 -6 -2 -5 -13z"/>
<path d="M5742 3095 c0 -16 2 -22 5 -12 2 9 2 23 0 30 -3 6 -5 -1 -5 -18z"/>
<path d="M6108 3113 c18 -2 45 -2 60 0 15 2 0 4 -33 4 -33 0 -45 -2 -27 -4z"/>
<path d="M5888 3103 c6 -2 18 -2 25 0 6 3 1 5 -13 5 -14 0 -19 -2 -12 -5z"/>
<path d="M5230 3070 c0 -5 5 -10 11 -10 5 0 7 5 4 10 -3 6 -8 10 -11 10 -2 0
-4 -4 -4 -10z"/>
<path d="M4727 3000 c3 -36 7 -67 9 -69 11 -13 11 11 -1 69 l-13 65 5 -65z"/>
<path d="M4840 3050 c-9 -6 -10 -10 -3 -10 6 0 15 5 18 10 8 12 4 12 -15 0z"/>
<path d="M5672 3030 c0 -14 2 -19 5 -12 2 6 2 18 0 25 -3 6 -5 1 -5 -13z"/>
<path d="M7200 3031 c0 -25 6 -27 13 -6 4 8 2 17 -3 20 -6 4 -10 -3 -10 -14z"/>
<path d="M1114 3024 c3 -9 6 -27 6 -42 0 -25 1 -25 17 -10 14 14 15 22 5 43
-12 27 -38 36 -28 9z"/>
<path d="M5752 3010 c0 -19 2 -27 5 -17 2 9 2 25 0 35 -3 9 -5 1 -5 -18z"/>
<path d="M6491 3024 c0 -11 3 -14 6 -6 3 7 2 16 -1 19 -3 4 -6 -2 -5 -13z"/>
<path d="M5528 3023 c7 -3 16 -2 19 1 4 3 -2 6 -13 5 -11 0 -14 -3 -6 -6z"/>
<path d="M5501 2989 c-1 -15 6 -32 14 -39 8 -7 12 -16 10 -21 -3 -4 4 -13 16
-19 16 -9 24 -9 33 1 8 9 8 10 -1 5 -6 -3 -18 -3 -27 0 -13 5 -14 9 -5 21 10
11 10 13 -1 11 -8 -2 -19 12 -26 32 -12 32 -13 33 -13 9z"/>
<path d="M6400 3000 c-23 -7 -23 -8 -3 -9 12 -1 25 4 28 9 3 6 5 10 3 9 -2 -1
-14 -5 -28 -9z"/>
<path d="M6523 2970 c0 -25 2 -35 4 -22 2 12 2 32 0 45 -2 12 -4 2 -4 -23z"/>
<path d="M4821 2996 c2 -2 15 -9 29 -15 24 -11 24 -11 6 3 -16 13 -49 24 -35
12z"/>
<path d="M6258 2983 c23 -2 59 -2 80 0 20 2 1 4 -43 4 -44 0 -61 -2 -37 -4z"/>
<path d="M5172 2955 c0 -16 2 -22 5 -12 2 9 2 23 0 30 -3 6 -5 -1 -5 -18z"/>
<path d="M5682 2955 c0 -16 2 -22 5 -12 2 9 2 23 0 30 -3 6 -5 -1 -5 -18z"/>
<path d="M5985 2970 c-33 -4 1 -5 75 -2 74 2 137 6 139 8 7 6 -147 1 -214 -6z"/>
<path d="M5888 2963 c7 -3 16 -2 19 1 4 3 -2 6 -13 5 -11 0 -14 -3 -6 -6z"/>
<path d="M4816 2952 c-3 -5 1 -9 9 -9 8 0 12 4 9 9 -3 4 -7 8 -9 8 -2 0 -6 -4
-9 -8z"/>
<path d="M7195 2951 c-6 -11 9 -23 19 -14 9 9 7 23 -3 23 -6 0 -12 -4 -16 -9z"/>
<path d="M5203 2927 c-2 -4 18 -7 46 -6 28 2 48 5 45 8 -8 9 -85 8 -91 -2z"/>
<path d="M5761 2914 c0 -11 3 -14 6 -6 3 7 2 16 -1 19 -3 4 -6 -2 -5 -13z"/>
<path d="M6431 2908 c-1 -29 13 -45 25 -27 4 7 3 9 -4 5 -6 -4 -12 5 -15 21
l-4 28 -2 -27z"/>
<path d="M4837 2901 c5 -21 7 -21 24 -5 21 19 26 32 6 15 -10 -8 -17 -7 -25 1
-8 8 -9 5 -5 -11z"/>
<path d="M5883 2880 c0 -25 2 -35 4 -22 2 12 2 32 0 45 -2 12 -4 2 -4 -23z"/>
<path d="M4747 2840 c3 -41 7 -77 9 -79 7 -8 3 74 -6 114 -6 30 -7 21 -3 -35z"/>
<path d="M4890 2899 c0 -5 5 -7 10 -4 6 3 10 8 10 11 0 2 -4 4 -10 4 -5 0 -10
-5 -10 -11z"/>
<path d="M5535 2890 c-4 -6 3 -10 14 -10 25 0 27 6 6 13 -8 4 -17 2 -20 -3z"/>
<path d="M5692 2880 c0 -14 2 -19 5 -12 2 6 2 18 0 25 -3 6 -5 1 -5 -13z"/>
<path d="M6532 2875 c0 -16 2 -22 5 -12 2 9 2 23 0 30 -3 6 -5 -1 -5 -18z"/>
<path d="M5777 2810 c3 -41 7 -77 9 -79 7 -8 3 74 -6 114 -6 30 -7 21 -3 -35z"/>
<path d="M7197 2865 c-4 -8 -2 -17 3 -20 6 -4 10 3 10 14 0 25 -6 27 -13 6z"/>
<path d="M5228 2863 c6 -2 18 -2 25 0 6 3 1 5 -13 5 -14 0 -19 -2 -12 -5z"/>
<path d="M4904 2848 c12 -7 21 -7 28 0 6 6 0 10 -18 10 -23 0 -24 -2 -10 -10z"/>
<path d="M4956 2852 c-2 -4 4 -8 14 -8 10 0 16 4 14 8 -3 4 -9 8 -14 8 -5 0
-11 -4 -14 -8z"/>
<path d="M5321 2844 c0 -11 3 -14 6 -6 3 7 2 16 -1 19 -3 4 -6 -2 -5 -13z"/>
<path d="M6388 2853 c6 -2 18 -2 25 0 6 3 1 5 -13 5 -14 0 -19 -2 -12 -5z"/>
<path d="M4840 2835 c-7 -8 -9 -15 -6 -15 4 0 14 7 22 15 9 8 11 15 6 15 -5 0
-15 -7 -22 -15z"/>
<path d="M5185 2820 c3 -19 10 -37 15 -38 6 -2 8 -7 5 -11 -2 -5 2 -17 11 -27
15 -18 15 -18 6 1 -7 14 -6 24 3 32 8 7 15 9 18 5 2 -4 2 -1 0 6 -1 8 -3 21
-4 30 -1 11 -3 8 -7 -6 -9 -32 -25 -28 -40 11 l-12 32 5 -35z"/>
<path d="M5345 2840 c-3 -5 -3 -10 2 -10 10 0 -28 -26 -47 -33 -8 -2 -2 -3 14
-1 23 3 26 1 17 -9 -8 -10 -7 -14 3 -14 8 0 13 7 11 16 -1 9 0 21 4 26 13 22
9 47 -4 25z"/>
<path d="M6268 2843 c17 -2 47 -2 65 0 17 2 3 4 -33 4 -36 0 -50 -2 -32 -4z"/>
<path d="M6442 2820 c0 -19 2 -27 5 -17 2 9 2 25 0 35 -3 9 -5 1 -5 -18z"/>
<path d="M5983 2833 c-40 -2 -73 -7 -73 -11 0 -4 17 -6 38 -4 20 1 93 7 162
11 113 7 116 8 35 8 -49 -1 -123 -3 -162 -4z"/>
<path d="M6543 2778 c0 -37 4 -73 8 -80 11 -16 11 40 0 102 -8 43 -8 42 -8
-22z"/>
<path d="M5020 2821 c0 -5 5 -13 10 -16 6 -3 10 -2 10 4 0 5 -4 13 -10 16 -5
3 -10 2 -10 -4z"/>
<path d="M5556 2812 c-6 -10 -2 -39 7 -48 3 -4 4 5 2 19 -4 22 -2 24 17 20 19
-4 20 -3 8 6 -18 13 -27 14 -34 3z"/>
<path d="M5705 2753 c2 -40 0 -87 -5 -105 -6 -17 -8 -34 -5 -36 2 -2 9 14 14
36 8 27 8 62 2 108 l-10 69 4 -72z"/>
<path d="M6502 2795 c0 -16 2 -22 5 -12 2 9 2 23 0 30 -3 6 -5 -1 -5 -18z"/>
<path d="M5874 2795 c-18 -14 -18 -14 4 -8 12 3 22 9 22 14 0 12 -3 11 -26 -6z"/>
<path d="M1480 2790 c0 -5 12 -10 26 -10 14 0 23 4 19 10 -3 6 -15 10 -26 10
-10 0 -19 -4 -19 -10z"/>
<path d="M5000 2790 c-9 -6 -10 -10 -3 -10 6 0 15 5 18 10 8 12 4 12 -15 0z"/>
<path d="M7201 2784 c0 -11 3 -14 6 -6 3 7 2 16 -1 19 -3 4 -6 -2 -5 -13z"/>
<path d="M4803 2775 c0 -8 4 -12 9 -9 5 3 6 10 3 15 -9 13 -12 11 -12 -6z"/>
<path d="M4840 2780 c13 -9 13 -11 0 -21 -13 -9 -12 -10 3 -5 10 3 24 6 30 6
6 0 2 7 -9 15 -10 8 -23 14 -29 15 -5 0 -3 -5 5 -10z"/>
<path d="M4777 2759 c4 -13 8 -18 11 -10 2 7 -1 18 -6 23 -8 8 -9 4 -5 -13z"/>
<path d="M4896 2767 c3 -10 9 -15 12 -12 3 3 0 11 -7 18 -10 9 -11 8 -5 -6z"/>
<path d="M4925 2770 c3 -5 11 -10 16 -10 6 0 7 5 4 10 -3 6 -11 10 -16 10 -6
0 -7 -4 -4 -10z"/>
<path d="M5010 2765 c-7 -9 -11 -17 -9 -20 3 -2 10 5 17 15 14 24 10 26 -8 5z"/>
<path d="M5894 2772 c11 -18 8 -174 -4 -186 -7 -7 -10 -6 -10 3 0 7 -4 9 -10
6 -5 -3 -10 -1 -10 4 0 6 -6 11 -14 11 -18 0 -27 36 -15 67 18 48 8 47 -12 -2
-14 -35 -19 -64 -15 -95 6 -53 114 -939 121 -990 9 -69 84 -687 96 -792 7 -59
16 -113 20 -120 6 -9 50 -6 196 16 322 48 567 87 569 89 1 1 -2 27 -7 57 -4
30 -11 78 -14 105 -7 65 -12 103 -41 330 -30 231 -82 647 -87 693 -3 21 -14
42 -30 55 -59 50 -66 56 -86 67 -19 9 -21 8 -21 -15 0 -18 5 -25 19 -25 15 0
21 -9 25 -40 3 -22 9 -58 12 -79 4 -32 2 -40 -13 -44 -16 -5 -178 -22 -212
-22 -15 0 -17 7 -27 101 l-6 61 41 7 c40 6 42 7 37 39 -3 17 -8 52 -11 77 -6
48 -20 71 -38 64 -8 -3 -13 9 -14 32 -1 21 -8 41 -15 45 -8 6 -9 9 -2 9 7 0
14 9 17 20 3 11 1 20 -4 20 -5 0 -9 -6 -9 -12 0 -10 -2 -10 -9 0 -4 8 -12 13
-17 13 -11 -1 -12 18 -2 21 4 1 35 5 68 8 46 4 60 3 60 -7 0 -8 10 -17 23 -22
13 -5 29 -16 36 -24 7 -9 26 -18 42 -21 16 -3 43 -9 59 -12 30 -6 30 -5 29 38
-1 70 -25 215 -31 193 -3 -11 -4 7 -2 40 l4 60 -13 -48 c-8 -26 -12 -60 -10
-75 2 -21 1 -23 -5 -8 -7 17 -10 17 -23 3 -17 -17 -32 -11 -42 15 -4 11 -12
15 -23 11 -19 -7 -39 18 -21 29 6 4 8 11 3 15 -5 4 -11 2 -13 -4 -3 -7 -11
-13 -19 -13 -8 0 -11 6 -8 15 8 20 41 19 53 -2 6 -11 11 -13 11 -5 0 7 5 10
10 7 9 -6 12 -2 14 28 1 6 6 16 11 20 6 4 1 7 -10 5 -18 -3 -20 3 -20 49 1 28
-3 49 -7 47 -13 -8 -9 -89 4 -102 7 -7 8 -12 2 -12 -5 0 -4 -4 2 -8 7 -4 -31
-8 -85 -9 -53 -1 -145 -7 -206 -13 -60 -5 -131 -11 -157 -12 -27 -1 -48 -4
-48 -7 0 -3 -12 -6 -27 -6 -28 0 -28 1 -30 67 l-2 67 42 5 c23 3 143 13 266
21 123 9 228 18 233 21 17 11 8 24 -9 14 -18 -11 -522 -51 -535 -43 -5 2 -8
22 -8 43 0 21 -5 42 -12 46 -7 4 -8 3 -4 -4z m-64 -190 c0 -14 4 -21 11 -17 6
4 5 -2 -3 -14 -12 -19 -13 -19 -20 -3 -3 9 -7 33 -7 52 -1 26 2 31 9 20 5 -8
10 -25 10 -38z m543 -29 c-18 -2 -48 -2 -65 0 -18 2 -4 4 32 4 36 0 50 -2 33
-4z m-156 -15 c-31 -5 -64 -5 -71 -1 -9 5 15 9 57 9 l72 1 -58 -9z m-144 -5
c-7 -2 -21 -2 -30 0 -10 3 -4 5 12 5 17 0 24 -2 18 -5z m324 -13 c-3 -13 -1
-18 5 -13 7 3 8 1 4 -6 -5 -8 -12 -9 -19 -2 -7 5 -38 7 -70 4 -47 -4 -57 -2
-57 10 0 15 19 19 114 25 24 2 28 -1 23 -18z m-497 0 c0 -5 -5 -10 -11 -10 -5
0 -7 5 -4 10 3 6 8 10 11 10 2 0 4 -4 4 -10z m533 -3 c3 -7 -1 -20 -8 -30 -11
-15 -12 -13 -11 13 1 31 10 39 19 17z m-89 -51 c-4 -10 5 -12 35 -9 35 4 39 2
35 -14 -4 -15 -17 -18 -75 -20 -55 -2 -69 0 -69 12 0 10 10 15 30 15 23 0 30
4 30 20 0 14 -5 18 -17 14 -15 -5 -15 -4 -3 4 17 13 41 -3 34 -22z m36 19 c7
-8 8 -15 2 -15 -5 0 -15 7 -22 15 -7 8 -8 15 -2 15 5 0 15 -7 22 -15z m115
-10 c16 -18 25 -22 28 -13 4 11 7 11 18 0 12 -11 12 -14 -1 -22 -8 -5 -18 -10
-22 -10 -9 0 -35 27 -41 42 -3 11 -9 11 -26 0 -11 -7 -21 -8 -21 -3 0 8 27 30
38 31 2 0 14 -11 27 -25z m-190 -5 c16 -7 12 -9 -18 -9 -23 -1 -36 -5 -32 -11
3 -5 1 -10 -4 -10 -18 0 -12 28 7 33 24 7 25 7 47 -3z m175 -26 c0 -8 6 -14
13 -15 10 0 10 -2 0 -6 -20 -8 -15 -26 5 -18 14 5 15 4 5 -6 -7 -7 -13 -23
-13 -36 0 -16 -4 -21 -15 -17 -17 7 -21 34 -5 34 6 0 10 5 10 10 0 6 -8 10
-17 10 -15 0 -14 2 3 15 17 13 17 14 2 15 -18 0 -24 20 -12 33 10 9 24 -2 24
-19z m-570 -24 c0 -29 4 -40 15 -40 8 0 15 -5 15 -11 0 -6 9 -9 19 -6 14 3 18
1 14 -9 -8 -22 18 -218 30 -226 6 -4 13 -6 14 -4 5 5 -25 205 -32 217 -6 8 -2
8 14 0 16 -9 21 -21 21 -56 0 -26 6 -50 16 -59 21 -21 21 -21 16 17 -3 24 -1
29 7 21 6 -6 14 -34 18 -63 3 -29 9 -47 13 -41 11 18 17 1 25 -75 9 -91 15
-116 27 -109 6 4 7 31 3 70 -4 43 -3 64 4 64 6 0 11 -11 11 -24 0 -32 10 -57
20 -51 9 5 16 -29 26 -121 l6 -61 -31 -5 c-26 -4 -31 -1 -32 16 -1 21 -1 21
-7 1 -4 -12 -18 -21 -34 -23 -21 -3 -27 2 -31 20 -4 22 -4 22 -6 -2 -1 -21 -7
-26 -31 -28 -26 -2 -30 1 -31 25 l-2 28 -4 -27 c-4 -28 -31 -46 -38 -25 -5 15
-39 266 -60 452 -9 77 -18 148 -21 158 -4 11 0 17 10 17 12 0 16 -10 16 -40z
m527 8 c-3 -8 -6 -5 -6 6 -1 11 2 17 5 13 3 -3 4 -12 1 -19z m120 -3 c-15 -11
-17 -17 -7 -34 6 -12 8 -26 5 -31 -3 -5 -1 -11 5 -15 18 -11 10 -33 -14 -37
-16 -3 -27 0 -30 9 -4 10 1 12 19 9 27 -5 34 11 9 21 -11 4 -14 13 -9 30 4 16
2 22 -5 18 -5 -3 -10 -15 -10 -26 0 -10 -4 -19 -10 -19 -5 0 -10 6 -10 13 0
17 61 90 69 82 3 -4 -2 -13 -12 -20z m-704 -56 c-4 -4 -9 6 -10 24 -1 30 -1
31 8 8 5 -14 6 -28 2 -32z m124 45 c-3 -3 -12 -4 -19 -1 -8 3 -5 6 6 6 11 1
17 -2 13 -5z m287 -3 c3 -5 -1 -11 -9 -15 -9 -3 -15 0 -15 9 0 16 16 20 24 6z
m176 -11 c0 -5 -2 -10 -4 -10 -3 0 -8 5 -11 10 -3 6 -1 10 4 10 6 0 11 -4 11
-10z m-55 -10 c3 -6 -1 -7 -9 -4 -18 7 -21 14 -7 14 6 0 13 -4 16 -10z m65
-20 c0 -5 -5 -10 -11 -10 -5 0 -7 5 -4 10 3 6 8 10 11 10 2 0 4 -4 4 -10z
m-175 -40 c3 -5 1 -10 -4 -10 -6 0 -11 5 -11 10 0 6 2 10 4 10 3 0 8 -4 11
-10z m322 -27 c-3 -10 -5 -4 -5 12 0 17 2 24 5 18 2 -7 2 -21 0 -30z m-332 -3
c3 -5 1 -10 -4 -10 -6 0 -11 5 -11 10 0 6 2 10 4 10 3 0 8 -4 11 -10z m-195
-10 c0 -5 -5 -10 -11 -10 -5 0 -7 5 -4 10 3 6 8 10 11 10 2 0 4 -4 4 -10z
m167 -490 c18 -10 39 -30 48 -44 10 -14 22 -23 31 -19 8 3 14 0 14 -7 0 -6 -5
-8 -11 -5 -7 5 -8 -5 -4 -29 7 -33 5 -36 -16 -37 l-24 -1 25 -7 c21 -6 25 -12
22 -41 -6 -60 -15 -64 -53 -26 -19 20 -38 36 -44 36 -5 0 8 -18 30 -40 l39
-40 -23 -24 c-48 -51 -121 -36 -167 34 -51 76 -31 200 36 235 29 15 30 15 30
-5 0 -11 4 -20 8 -20 5 0 7 14 4 30 -5 36 9 39 55 10z m-247 -10 c0 -5 -7 -10
-15 -10 -8 0 -18 0 -22 -1 -4 0 -9 4 -11 10 -2 6 8 11 22 11 14 0 26 -4 26
-10z m50 -8 c0 -4 -9 -8 -19 -8 -11 0 -17 4 -15 8 3 4 12 8 20 8 8 0 14 -4 14
-8z m30 -22 c0 -5 -4 -10 -10 -10 -5 0 -10 5 -10 10 0 6 5 10 10 10 6 0 10 -4
10 -10z m340 2 c0 -10 -60 -35 -67 -28 -4 3 1 6 10 6 10 0 17 6 17 13 0 7 9
13 20 14 11 1 20 -1 20 -5z m-382 -148 c3 -2 -59 4 -68 6 -3 1 4 5 15 9 12 5
26 4 35 -2 8 -6 16 -12 18 -13z m380 9 c-10 -2 -28 -2 -40 0 -13 2 -5 4 17 4
22 1 32 -1 23 -4z m40 -20 c-10 -2 -28 -2 -40 0 -13 2 -5 4 17 4 22 1 32 -1
23 -4z m-41 -19 c-3 -3 -12 -4 -19 -1 -8 3 -5 6 6 6 11 1 17 -2 13 -5z m53
-14 c-8 -5 -25 -10 -37 -10 -13 0 -23 -4 -23 -10 0 -5 -7 -10 -15 -10 -48 0
21 36 75 39 13 1 13 0 0 -9z m13 -37 c-7 -2 -21 -2 -30 0 -10 3 -4 5 12 5 17
0 24 -2 18 -5z m-60 -10 c-7 -2 -21 -2 -30 0 -10 3 -4 5 12 5 17 0 24 -2 18
-5z m-309 -38 c-9 -14 -21 -25 -26 -25 -5 0 -2 7 6 16 9 8 16 20 16 25 0 5 5
9 10 9 6 0 3 -11 -6 -25z m293 19 c-3 -3 -12 -4 -19 -1 -8 3 -5 6 6 6 11 1 17
-2 13 -5z m68 -15 c-22 -4 -53 -8 -70 -7 -29 1 -29 1 5 8 19 4 51 7 70 8 l35
0 -40 -9z m-430 -9 c-3 -5 -14 -10 -23 -10 -15 0 -15 2 -2 10 20 13 33 13 25
0z m645 -8 c0 -4 16 -138 35 -296 19 -159 35 -299 35 -310 0 -21 -15 -24 -331
-75 -182 -29 -333 -50 -336 -47 -5 4 -83 602 -83 636 0 13 57 23 308 57 326
43 372 48 372 35z m-653 -38 c-3 -3 -12 -4 -19 -1 -8 3 -5 6 6 6 11 1 17 -2
13 -5z"/>
<path d="M5952 2260 c0 -14 2 -19 5 -12 2 6 2 18 0 25 -3 6 -5 1 -5 -13z"/>
<path d="M5962 2175 c0 -16 2 -22 5 -12 2 9 2 23 0 30 -3 6 -5 -1 -5 -18z"/>
<path d="M6032 2170 c0 -14 2 -19 5 -12 2 6 2 18 0 25 -3 6 -5 1 -5 -13z"/>
<path d="M5942 2145 c0 -16 2 -22 5 -12 2 9 2 23 0 30 -3 6 -5 -1 -5 -18z"/>
<path d="M6062 2120 c0 -14 2 -19 5 -12 2 6 2 18 0 25 -3 6 -5 1 -5 -13z"/>
<path d="M5972 2095 c0 -16 2 -22 5 -12 2 9 2 23 0 30 -3 6 -5 -1 -5 -18z"/>
<path d="M6042 2095 c0 -16 2 -22 5 -12 2 9 2 23 0 30 -3 6 -5 -1 -5 -18z"/>
<path d="M5951 2074 c0 -11 3 -14 6 -6 3 7 2 16 -1 19 -3 4 -6 -2 -5 -13z"/>
<path d="M6021 2074 c0 -11 3 -14 6 -6 3 7 2 16 -1 19 -3 4 -6 -2 -5 -13z"/>
<path d="M6072 2045 c0 -16 2 -22 5 -12 2 9 2 23 0 30 -3 6 -5 -1 -5 -18z"/>
<path d="M5982 2020 c0 -19 2 -27 5 -17 2 9 2 25 0 35 -3 9 -5 1 -5 -18z"/>
<path d="M6052 2005 c0 -16 2 -22 5 -12 2 9 2 23 0 30 -3 6 -5 -1 -5 -18z"/>
<path d="M5962 1985 c0 -16 2 -22 5 -12 2 9 2 23 0 30 -3 6 -5 -1 -5 -18z"/>
<path d="M6032 1985 c0 -16 2 -22 5 -12 2 9 2 23 0 30 -3 6 -5 -1 -5 -18z"/>
<path d="M6172 1985 c0 -16 2 -22 5 -12 2 9 2 23 0 30 -3 6 -5 -1 -5 -18z"/>
<path d="M6082 1955 c0 -16 2 -22 5 -12 2 9 2 23 0 30 -3 6 -5 -1 -5 -18z"/>
<path d="M6152 1950 c0 -14 2 -19 5 -12 2 6 2 18 0 25 -3 6 -5 1 -5 -13z"/>
<path d="M5992 1935 c0 -16 2 -22 5 -12 2 9 2 23 0 30 -3 6 -5 -1 -5 -18z"/>
<path d="M6062 1935 c0 -16 2 -22 5 -12 2 9 2 23 0 30 -3 6 -5 -1 -5 -18z"/>
<path d="M6132 1930 c0 -14 2 -19 5 -12 2 6 2 18 0 25 -3 6 -5 1 -5 -13z"/>
<path d="M5972 1900 c0 -19 2 -27 5 -17 2 9 2 25 0 35 -3 9 -5 1 -5 -18z"/>
<path d="M6042 1900 c0 -19 2 -27 5 -17 2 9 2 25 0 35 -3 9 -5 1 -5 -18z"/>
<path d="M6182 1895 c0 -16 2 -22 5 -12 2 9 2 23 0 30 -3 6 -5 -1 -5 -18z"/>
<path d="M6092 1885 c0 -16 2 -22 5 -12 2 9 2 23 0 30 -3 6 -5 -1 -5 -18z"/>
<path d="M6111 1894 c0 -11 3 -14 6 -6 3 7 2 16 -1 19 -3 4 -6 -2 -5 -13z"/>
<path d="M6162 1880 c0 -14 2 -19 5 -12 2 6 2 18 0 25 -3 6 -5 1 -5 -13z"/>
<path d="M6186 1696 c2 -33 6 -61 7 -62 6 -4 77 9 77 15 0 4 -15 5 -34 3 -34
-4 -34 -4 -45 50 l-10 53 5 -59z"/>
<path d="M6540 1385 c0 -10 11 -15 35 -15 24 0 35 5 35 15 0 10 -11 15 -35 15
-24 0 -35 -5 -35 -15z"/>
<path d="M6325 1329 c-4 -6 -5 -12 -2 -15 2 -3 7 2 10 11 7 17 1 20 -8 4z"/>
<path d="M6092 1306 c3 -18 9 -20 38 -18 44 5 51 9 43 28 -4 10 -17 14 -45 12
-33 -2 -38 -5 -36 -22z m58 4 c-8 -5 -22 -10 -30 -10 -13 0 -13 1 0 10 8 5 22
10 30 10 13 0 13 -1 0 -10z"/>
<path d="M6210 1159 c0 -5 5 -7 10 -4 6 3 10 8 10 11 0 2 -4 4 -10 4 -5 0 -10
-5 -10 -11z"/>
<path d="M6302 1085 c0 -16 2 -22 5 -12 2 9 2 23 0 30 -3 6 -5 -1 -5 -18z"/>
<path d="M6401 1074 c0 -11 3 -14 6 -6 3 7 2 16 -1 19 -3 4 -6 -2 -5 -13z"/>
<path d="M6331 1044 c0 -11 3 -14 6 -6 3 7 2 16 -1 19 -3 4 -6 -2 -5 -13z"/>
<path d="M6480 1031 c0 -11 -6 -22 -12 -24 -8 -3 -6 -6 5 -6 12 -1 17 7 17 24
0 14 -2 25 -5 25 -3 0 -5 -9 -5 -19z"/>
<path d="M6181 1024 c0 -11 3 -14 6 -6 3 7 2 16 -1 19 -3 4 -6 -2 -5 -13z"/>
<path d="M6311 994 c0 -11 3 -14 6 -6 3 7 2 16 -1 19 -3 4 -6 -2 -5 -13z"/>
<path d="M6261 984 c0 -11 3 -14 6 -6 3 7 2 16 -1 19 -3 4 -6 -2 -5 -13z"/>
<path d="M6390 898 c0 -12 58 -10 65 2 4 6 -8 9 -29 8 -20 -2 -36 -6 -36 -10z"/>
<path d="M6325 889 c-15 -6 -11 -8 18 -8 20 -1 37 1 37 3 0 9 -37 12 -55 5z"/>
<path d="M6280 880 c0 -5 5 -10 10 -10 6 0 10 5 10 10 0 6 -4 10 -10 10 -5 0
-10 -4 -10 -10z"/>
<path d="M5801 2754 c0 -11 3 -14 6 -6 3 7 2 16 -1 19 -3 4 -6 -2 -5 -13z"/>
<path d="M5851 2754 c0 -11 3 -14 6 -6 3 7 2 16 -1 19 -3 4 -6 -2 -5 -13z"/>
<path d="M5265 2741 c1 -12 11 -15 35 -13 36 4 50 -9 50 -45 0 -21 -5 -23 -49
-23 -68 0 -83 -7 -71 -31 11 -19 42 -21 57 -4 5 4 2 5 -4 1 -7 -4 -13 -2 -13
3 0 6 -5 11 -11 11 -5 0 -7 -5 -3 -12 4 -7 3 -8 -4 -4 -7 4 -12 11 -12 17 0
11 79 7 98 -5 7 -4 16 -5 19 -2 4 3 1 6 -5 6 -9 0 -9 5 0 20 10 15 10 26 1 51
-7 18 -11 35 -9 38 2 3 -7 7 -21 8 -19 1 -22 -1 -12 -8 11 -6 8 -9 -9 -9 -13
0 -21 4 -18 8 3 5 -1 9 -8 9 -8 0 -13 -7 -11 -16z"/>
<path d="M4940 2743 c0 -6 9 -20 20 -33 11 -13 20 -20 20 -16 0 4 -9 19 -20
33 -11 14 -20 21 -20 16z"/>
<path d="M4970 2747 c0 -3 6 -12 14 -20 8 -8 18 -31 21 -51 6 -31 5 -36 -11
-34 -11 0 -28 0 -39 -1 -17 -1 -18 -3 -5 -11 13 -8 13 -10 -2 -10 -9 0 -20 5
-23 11 -4 6 -13 8 -21 5 -8 -3 -21 -3 -29 0 -12 5 -13 10 -4 20 8 9 8 14 1 14
-23 0 -24 -24 -1 -41 26 -20 44 -25 34 -9 -8 13 1 13 26 -2 17 -11 22 -10 35
7 11 15 17 17 23 7 6 -10 10 -10 20 2 16 19 5 80 -20 102 -10 9 -19 14 -19 11z"/>
<path d="M5613 2715 c2 -37 0 -40 -23 -37 -14 2 -22 0 -17 -4 11 -11 45 -15
50 -6 3 4 1 25 -3 47 l-9 40 2 -40z"/>
<path d="M5652 2715 c0 -16 2 -22 5 -12 2 9 2 23 0 30 -3 6 -5 -1 -5 -18z"/>
<path d="M5532 2719 c13 -7 16 -18 11 -42 -3 -18 -3 -29 1 -26 10 9 16 48 9
64 -3 8 -13 15 -22 15 -14 -1 -14 -2 1 -11z"/>
<path d="M4804 2696 c0 -14 6 -22 14 -19 15 6 15 11 -2 28 -12 12 -14 11 -12
-9z"/>
<path d="M4875 2710 c3 -5 14 -10 23 -10 15 0 15 2 2 10 -20 13 -33 13 -25 0z"/>
<path d="M4925 2710 c3 -5 8 -10 11 -10 2 0 4 5 4 10 0 6 -5 10 -11 10 -5 0
-7 -4 -4 -10z"/>
<path d="M5027 2705 c-4 -8 -3 -16 1 -19 4 -3 9 4 9 15 2 23 -3 25 -10 4z"/>
<path d="M5793 2685 c0 -22 2 -30 4 -17 2 12 2 30 0 40 -3 9 -5 -1 -4 -23z"/>
<path d="M5201 2694 c0 -11 3 -14 6 -6 3 7 2 16 -1 19 -3 4 -6 -2 -5 -13z"/>
<path d="M5867 2696 c-4 -10 -5 -21 -2 -24 9 -9 17 6 13 25 -3 17 -4 17 -11
-1z"/>
<path d="M7195 2701 c-3 -5 -1 -12 5 -16 5 -3 10 1 10 9 0 18 -6 21 -15 7z"/>
<path d="M6562 2650 c0 -19 2 -27 5 -17 2 9 2 25 0 35 -3 9 -5 1 -5 -18z"/>
<path d="M3007 2656 c-3 -8 -3 -17 0 -20 7 -7 33 13 33 25 0 15 -27 10 -33 -5z"/>
<path d="M5660 2656 c0 -8 5 -18 10 -21 6 -3 10 1 10 9 0 8 -4 18 -10 21 -5 3
-10 -1 -10 -9z"/>
<path d="M5560 2645 c0 -8 -6 -13 -12 -11 -7 1 -10 1 -5 -1 4 -3 7 -11 7 -19
0 -16 9 -18 29 -5 21 13 41 2 41 -23 0 -26 19 -61 20 -36 0 13 1 13 10 0 7
-10 10 -11 10 -2 0 7 -7 15 -15 18 -8 4 -13 9 -10 13 2 4 -3 17 -11 29 -17 24
-49 29 -58 10 -3 -7 -3 -1 0 15 4 15 3 27 0 27 -3 0 -6 -7 -6 -15z"/>
<path d="M4810 2640 c0 -5 5 -10 10 -10 6 0 10 5 10 10 0 6 -4 10 -10 10 -5 0
-10 -4 -10 -10z"/>
<path d="M5200 2641 c0 -6 4 -13 10 -16 6 -3 7 1 4 9 -7 18 -14 21 -14 7z"/>
<path d="M5317 2619 c7 -7 15 -10 18 -7 3 3 -2 9 -12 12 -14 6 -15 5 -6 -5z"/>
<path d="M7190 2621 c0 -6 5 -13 10 -16 6 -3 10 1 10 9 0 9 -4 16 -10 16 -5 0
-10 -4 -10 -9z"/>
<path d="M5205 2599 c-4 -6 -5 -12 -2 -15 2 -3 7 2 10 11 7 17 1 20 -8 4z"/>
<path d="M5650 2590 c6 -11 15 -20 20 -20 6 0 2 9 -7 20 -10 11 -19 20 -21 20
-1 0 2 -9 8 -20z"/>
<path d="M6546 2594 c-4 -9 -4 -19 -1 -22 2 -3 7 3 11 12 4 9 4 19 1 22 -2 3
-7 -3 -11 -12z"/>
<path d="M6509 2563 c-6 -17 -7 -34 -2 -42 12 -19 33 -26 33 -12 0 6 -7 11
-15 11 -8 0 -15 7 -15 15 0 18 12 19 28 3 8 -8 12 -8 12 -1 0 6 -7 16 -15 23
-8 7 -12 16 -9 21 3 5 3 9 -1 9 -3 0 -10 -12 -16 -27z"/>
<path d="M4895 2570 c-3 -5 1 -10 9 -10 9 0 16 5 16 10 0 6 -4 10 -9 10 -6 0
-13 -4 -16 -10z"/>
<path d="M5561 2564 c0 -11 3 -14 6 -6 3 7 2 16 -1 19 -3 4 -6 -2 -5 -13z"/>
<path d="M4800 2550 c0 -5 18 -10 40 -10 22 0 40 5 40 10 0 6 -18 10 -40 10
-22 0 -40 -4 -40 -10z"/>
<path d="M7121 2524 c0 -11 3 -14 6 -6 3 7 2 16 -1 19 -3 4 -6 -2 -5 -13z"/>
<path d="M4990 2498 c0 -4 6 -8 14 -8 8 0 17 4 20 8 2 4 -4 8 -15 8 -10 0 -19
-4 -19 -8z"/>
<path d="M4970 2470 c-8 -5 -10 -10 -5 -10 6 0 17 5 25 10 8 5 11 10 5 10 -5
0 -17 -5 -25 -10z"/>
<path d="M7190 2450 c0 -5 5 -10 10 -10 6 0 10 5 10 10 0 6 -4 10 -10 10 -5 0
-10 -4 -10 -10z"/>
<path d="M5812 2295 c0 -16 2 -22 5 -12 2 9 2 23 0 30 -3 6 -5 -1 -5 -18z"/>
<path d="M5791 2274 c0 -11 3 -14 6 -6 3 7 2 16 -1 19 -3 4 -6 -2 -5 -13z"/>
<path d="M7195 2280 c3 -5 8 -10 11 -10 2 0 4 5 4 10 0 6 -5 10 -11 10 -5 0
-7 -4 -4 -10z"/>
<path d="M3340 2253 c0 -28 15 -44 33 -37 21 8 22 40 1 48 -26 10 -34 7 -34
-11z"/>
<path d="M4792 2240 c0 -19 2 -27 5 -17 2 9 2 25 0 35 -3 9 -5 1 -5 -18z"/>
<path d="M6820 2241 c0 -39 11 -51 39 -45 36 9 35 9 10 38 -27 31 -49 34 -49
7z"/>
<path d="M5801 2205 c1 -22 4 -31 6 -20 3 11 10 26 16 33 5 7 7 15 3 19 -3 3
-6 0 -6 -8 0 -11 -2 -11 -10 1 -7 11 -9 4 -9 -25z"/>
<path d="M6914 2216 c-26 -19 -13 -23 99 -29 78 -4 88 -3 85 12 -3 13 -14 15
-55 13 -29 -2 -54 1 -57 7 -10 15 -49 14 -72 -3z"/>
<path d="M4771 2194 c0 -11 3 -14 6 -6 3 7 2 16 -1 19 -3 4 -6 -2 -5 -13z"/>
<path d="M7180 2195 c0 -8 5 -15 10 -15 6 0 10 7 10 15 0 8 -4 15 -10 15 -5 0
-10 -7 -10 -15z"/>
<path d="M2376 2174 c-8 -22 1 -31 16 -16 9 9 9 15 1 23 -7 7 -12 5 -17 -7z"/>
<path d="M4762 2150 c0 -14 2 -19 5 -12 2 6 2 18 0 25 -3 6 -5 1 -5 -13z"/>
<path d="M2997 2129 c-7 -25 2 -51 14 -43 12 7 12 51 0 58 -5 3 -11 -4 -14
-15z"/>
<path d="M3317 2057 c-14 -22 -14 -27 -2 -37 27 -22 47 15 26 48 -6 10 -12 7
-24 -11z"/>
<path d="M1290 2056 c0 -2 9 -6 20 -9 11 -3 18 -1 14 4 -5 9 -34 13 -34 5z"/>
<path d="M2990 1911 c0 -83 4 -142 10 -146 6 -4 10 45 10 139 0 91 -4 146 -10
146 -6 0 -10 -53 -10 -139z"/>
<path d="M6672 1965 c3 -16 28 -213 54 -437 27 -225 52 -408 55 -408 4 0 10
11 13 25 3 13 16 33 28 44 22 21 109 51 147 51 20 0 20 2 -7 45 -25 42 -28 44
-34 23 -5 -18 -6 -15 -7 14 -1 21 -15 64 -33 98 -28 55 -30 63 -20 98 13 43
47 73 165 146 73 45 77 49 62 66 -9 10 -55 34 -103 54 -48 19 -109 52 -137 71
-27 19 -68 47 -90 62 -22 14 -42 29 -45 32 -3 3 -16 15 -29 26 l-24 20 5 -30z
m67 -119 c1 -57 -5 -40 -12 29 -3 37 -2 51 3 35 4 -14 8 -43 9 -64z m18 -188
c-3 -8 -6 -5 -6 6 -1 11 2 17 5 13 3 -3 4 -12 1 -19z"/>
<path d="M1350 1939 c0 -25 17 -59 30 -59 5 0 15 10 21 22 10 18 8 24 -11 40
-29 23 -40 23 -40 -3z"/>
<path d="M8144 1945 c-4 -11 -21 -15 -57 -15 -40 0 -48 -3 -39 -12 14 -14 232
-20 232 -6 0 4 -9 17 -20 28 -25 25 -107 29 -116 5z"/>
<path d="M2520 1936 c0 -16 21 -26 56 -26 26 0 30 10 12 28 -17 17 -68 15 -68
-2z"/>
<path d="M2046 1821 c-4 -7 -5 -15 -2 -18 9 -9 19 4 14 18 -4 11 -6 11 -12 0z"/>
<path d="M2081 1757 c-11 -27 -3 -77 15 -94 19 -19 22 -16 30 22 3 19 10 35
16 35 5 0 6 -5 3 -10 -8 -13 4 -70 15 -70 12 0 22 49 15 71 -4 10 -15 19 -25
19 -10 0 -21 9 -25 19 -9 30 -34 34 -44 8z"/>
<path d="M2534 1742 c-17 -11 -26 -48 -29 -118 -2 -62 -2 -63 42 -104 24 -22
48 -38 53 -35 5 3 14 24 20 45 11 41 7 54 -46 164 -8 16 -14 35 -14 43 0 14
-9 17 -26 5z"/>
<path d="M3310 1718 c0 -9 5 -20 10 -23 13 -8 13 5 0 25 -8 13 -10 13 -10 -2z"/>
<path d="M2440 1691 c-12 -23 -5 -61 11 -61 5 0 15 11 21 25 9 21 9 29 -4 42
-15 14 -17 13 -28 -6z"/>
<path d="M8040 1617 c0 -2 14 -16 32 -33 l31 -29 -23 33 c-20 27 -40 42 -40
29z"/>
<path d="M2676 1585 c-11 -11 -12 -23 -6 -47 5 -18 12 -45 15 -60 3 -17 11
-25 22 -24 22 4 39 64 24 88 -6 10 -11 24 -11 32 0 21 -27 27 -44 11z"/>
<path d="M7200 1561 c0 -6 4 -13 10 -16 14 -9 4 -73 -15 -91 -8 -8 -15 -20
-15 -25 0 -16 -44 -9 -98 16 -30 14 -61 25 -70 25 -17 -1 162 -90 179 -90 6 0
8 -4 5 -8 -2 -4 -1 -14 4 -22 6 -9 -9 -30 -51 -72 -32 -32 -59 -62 -59 -68 0
-15 -27 -12 -61 6 -32 16 -55 11 -29 -7 24 -14 80 -28 95 -23 7 3 16 16 19 29
8 33 68 76 124 91 l47 12 -2 76 c-3 69 -6 80 -39 126 -36 51 -44 58 -44 41z"/>
<path d="M7752 1500 c0 -14 2 -19 5 -12 2 6 2 18 0 25 -3 6 -5 1 -5 -13z"/>
<path d="M4610 1411 c0 -7 -7 -28 -16 -47 -16 -33 -15 -35 10 -65 25 -29 30
-42 39 -101 3 -22 0 -28 -13 -28 -12 0 -17 -8 -17 -25 0 -19 11 -34 43 -56 46
-31 63 -53 19 -25 -33 22 -32 2 1 -27 15 -12 32 -28 40 -34 7 -7 17 -13 22
-13 5 0 16 -8 23 -17 13 -16 12 -17 -3 -4 -16 12 -18 11 -18 -7 0 -11 -6 -23
-12 -26 -7 -3 4 -5 24 -3 32 3 43 -2 70 -32 l33 -34 -32 21 c-36 26 -63 28
-63 7 0 -8 3 -15 8 -15 4 0 14 -15 21 -32 19 -42 55 -78 79 -78 11 0 31 -9 44
-20 14 -10 28 -17 31 -13 4 3 24 -6 46 -21 22 -16 44 -25 50 -22 5 4 19 -7 31
-24 22 -30 40 -39 40 -19 0 21 -73 129 -99 145 -60 39 -209 202 -236 257 -14
31 -32 60 -40 64 -29 17 -84 138 -96 213 -10 66 -29 118 -29 81z m440 -676 c0
-5 -5 -3 -10 5 -5 8 -10 20 -10 25 0 6 5 3 10 -5 5 -8 10 -19 10 -25z"/>
<path d="M466 743 c-9 -60 -4 -133 9 -133 23 0 43 63 37 118 -4 41 -8 52 -22
52 -13 0 -20 -10 -24 -37z"/>
<path d="M7247 773 c9 -3 11 -51 7 -196 -3 -106 -7 -202 -9 -214 -3 -12 4 -43
16 -70 19 -42 21 -62 17 -171 l-5 -122 558 0 c541 0 557 1 552 19 -8 30 14 33
36 5 11 -14 28 -24 36 -22 11 2 -25 38 -104 106 -67 56 -121 109 -121 118 0 8
12 36 26 60 15 25 25 46 23 48 -2 1 -33 11 -69 20 -36 10 -83 24 -105 32 -22
7 -105 31 -185 54 -80 23 -167 50 -195 60 -27 11 -98 34 -157 51 -60 18 -108
37 -108 42 0 11 178 7 202 -5 10 -5 18 -4 20 4 3 8 9 8 25 -1 12 -6 31 -11 43
-11 13 0 19 -4 14 -11 -5 -8 1 -10 19 -7 16 3 25 1 24 -6 -1 -6 10 -9 26 -8
15 2 27 0 27 -5 0 -5 31 -14 70 -21 74 -13 258 -69 275 -83 5 -5 19 -9 31 -9
13 0 25 -4 29 -10 3 -5 12 -7 20 -3 8 3 15 0 15 -6 0 -6 -4 -11 -10 -11 -5 0
-7 -7 -4 -15 5 -11 15 -4 40 27 19 24 34 46 34 50 0 3 -30 25 -66 48 -36 23
-64 44 -61 46 3 3 22 -5 44 -18 40 -25 61 -29 66 -13 1 5 -12 12 -28 15 -17 4
-42 14 -56 24 -15 9 -69 24 -120 33 -101 17 -261 24 -253 11 3 -4 0 -8 -6 -8
-6 0 -13 7 -16 15 -5 13 -9 13 -35 0 -26 -14 -28 -14 -22 1 5 14 3 14 -27 -1
-19 -10 -35 -13 -39 -7 -7 11 -72 22 -65 10 3 -4 -5 -8 -17 -8 -18 0 -20 3
-11 12 17 17 15 24 -8 25 -11 1 -20 -2 -20 -8 0 -30 -191 36 -305 105 -33 20
-64 36 -70 35 -5 0 -5 -3 2 -6z m962 -202 c10 -6 -1 -8 -30 -4 -24 3 -46 7
-48 9 -10 9 65 3 78 -5z m-494 -127 c12 -12 13 -19 4 -30 -24 -29 -59 -5 -45
31 7 19 21 19 41 -1z m0 -169 c0 -23 -4 -30 -20 -30 -21 0 -31 25 -21 51 11
28 41 12 41 -21z m3 -153 c4 -28 -24 -40 -45 -19 -21 21 -9 49 19 45 15 -2 24
-11 26 -26z"/>
<path d="M7370 730 c8 -5 22 -10 30 -10 13 0 13 1 0 10 -8 5 -22 10 -30 10
-13 0 -13 -1 0 -10z"/>
<path d="M7750 639 c0 -5 5 -7 10 -4 6 3 10 8 10 11 0 2 -4 4 -10 4 -5 0 -10
-5 -10 -11z"/>
<path d="M8361 516 c-9 -11 -9 -16 1 -22 7 -4 10 -4 6 1 -4 4 -3 14 3 22 6 7
9 13 6 13 -2 0 -10 -6 -16 -14z"/>
<path d="M8366 444 c-13 -30 -16 -108 -5 -114 5 -4 0 -15 -11 -25 -15 -13 -19
-14 -15 -4 4 10 -1 15 -12 15 -12 0 -18 -8 -18 -23 0 -13 5 -23 12 -23 13 0
98 66 128 99 18 21 18 23 3 32 -9 5 -24 16 -33 25 -8 8 -15 12 -15 8 0 -4 -6
0 -13 10 -13 18 -14 18 -21 0z m74 -53 c0 -4 -10 -16 -21 -27 -22 -19 -22 -19
-10 3 7 14 8 24 1 28 -20 12 -10 26 10 15 11 -6 20 -14 20 -19z"/>
<path d="M7186 92 c-3 -5 -8 -28 -12 -50 -7 -42 -6 -42 25 -42 35 0 35 0 21
52 -11 39 -25 55 -34 40z"/>
</g>
</svg>
